<?xml version="1.0" standalone="no"?>
<!DOCTYPE svg PUBLIC "-//W3C//DTD SVG 1.1//EN" "http://www.w3.org/Graphics/SVG/1.1/DTD/svg11.dtd" >
<svg>
<metadata>
Created by FontForge 20120731 at Tue Apr  4 20:50:59 2017
 By www
Copyright (c) 2016 by Alejandro Paul. All rights reserved. www.sudtipos.com, with Reserved Font Name "Henderson Sans"
</metadata>
<defs>
<font id="HendersonSansW00-BasicThin" horiz-adv-x="769" >
  <font-face 
    font-family="HendersonSansW00-BasicThin"
    font-weight="250"
    font-stretch="normal"
    units-per-em="1000"
    panose-1="2 0 5 5 2 0 0 2 0 4"
    ascent="800"
    descent="-200"
    x-height="500"
    cap-height="665"
    bbox="-84 -284 1462 948"
    underline-thickness="50"
    underline-position="-75"
    unicode-range="U+000D-FB02"
  />
<missing-glyph horiz-adv-x="320" 
 />
    <glyph glyph-name=".notdef" horiz-adv-x="320" 
 />
    <glyph glyph-name=".null" horiz-adv-x="0" 
 />
    <glyph glyph-name="uni000D" unicode="&#xd;" horiz-adv-x="320" 
 />
    <glyph glyph-name="space" unicode=" " horiz-adv-x="320" 
 />
    <glyph glyph-name="exclam" unicode="!" horiz-adv-x="296" 
d="M138 665h20v-524h-20v524zM149 -18q17 0 26.5 9.5t9.5 27.5q0 16 -10 26t-27 10t-26.5 -9.5t-9.5 -27.5q0 -16 10 -26t27 -10z" />
    <glyph glyph-name="quotedbl" unicode="&#x22;" horiz-adv-x="462" 
d="M138 665h20v-336h-20v336zM304 665h20v-336h-20v336z" />
    <glyph glyph-name="numbersign" unicode="#" horiz-adv-x="680" 
d="M125 423h172l90 155h20l-90 -155h160l90 155h20l-90 -155h139v-20h-150l-93 -160h163v-20h-174l-90 -156h-20l90 156h-160l-90 -156h-20l90 156h-137v20h148l93 160h-161v20zM213 243h160l93 160h-160z" />
    <glyph glyph-name="dollar" unicode="$" horiz-adv-x="713" 
d="M107 178q22 -38 72 -68t99.5 -42t85.5 -12q37 0 78.5 9.5t83 34.5t63 60t21.5 66q0 33 -17.5 56t-59.5 37.5t-151 19.5t-140 9.5t-53 10.5t-43.5 17.5t-37 34.5t-15.5 59q0 47 31 79.5t87 51.5t131 19h12v75h20v-76q78 -5 141.5 -32.5t90.5 -84.5l-20 -12
q-46 109 -246 109q-40 0 -93.5 -9.5t-93.5 -40.5t-40 -79q0 -18 6.5 -34.5t22.5 -30t39.5 -21.5t56 -13t129 -10t133.5 -12.5t63.5 -19t46.5 -36.5t20 -67q0 -34 -17 -63.5t-45 -55t-78.5 -47.5t-115.5 -24v-66h-20v66q-72 0 -153 37t-114 94z" />
    <glyph glyph-name="percent" unicode="%" horiz-adv-x="1055" 
d="M325 0l385 672l18 -10l-385 -672zM272 231q95 0 153 59t58 157q0 94 -59 152.5t-154 58.5t-153 -59t-58 -157q0 -94 59 -152.5t154 -58.5zM272 251q-87 0 -140 53t-53 138q0 89 52.5 142.5t138.5 53.5q87 0 140 -53t53 -138q0 -89 -52.5 -142.5t-138.5 -53.5zM785 -8
q95 0 153 59t58 157q0 94 -59 152.5t-154 58.5t-153 -59t-58 -157q0 -94 59 -152.5t154 -58.5zM785 12q-87 0 -140 53t-53 138q0 89 52.5 142.5t138.5 53.5q87 0 140 -53t53 -138q0 -89 -52.5 -142.5t-138.5 -53.5z" />
    <glyph glyph-name="ampersand" unicode="&#x26;" horiz-adv-x="929" 
d="M411 698q53 0 103 -11.5t89.5 -35t63 -60.5t23.5 -85q0 -24 -19.5 -58t-60 -63t-103.5 -43q57 -13 108.5 -49.5t105.5 -121.5q7 11 51.5 81t75.5 87l4 -16q-32 -33 -74 -98.5t-46 -71.5q5 -8 30 -47.5t46.5 -62t47.5 -34.5l-2 -20q-22 10 -45.5 29t-43.5 47t-45 71
q-62 -89 -135.5 -127.5t-173.5 -38.5q-71 0 -129.5 16.5t-97.5 44.5t-59.5 63.5t-20.5 72.5q0 60 52 109.5t150 67.5q-49 11 -90.5 37.5t-62.5 64t-21 60.5q0 48 23.5 85t63 60.5t89.5 35t103 11.5zM411 678q-49 0 -95.5 -10.5t-83.5 -31.5t-58.5 -54t-21.5 -76
q0 -15 12 -40t40.5 -51t80.5 -44t126 -18q56 0 106.5 12.5t84.5 37.5t51 53.5t17 49.5q0 32 -14.5 63.5t-52 58t-90.5 38.5t-102 12zM411 333q-67 0 -121 -14t-89 -37.5t-53 -54t-18 -62.5q0 -33 18.5 -64.5t54.5 -56.5t89 -39.5t119 -14.5q92 0 164.5 39.5t134.5 125.5
q-44 74 -85.5 110t-95.5 52t-118 16z" />
    <glyph glyph-name="quotesingle" unicode="'" horiz-adv-x="296" 
d="M138 665h20v-336h-20v336z" />
    <glyph glyph-name="parenleft" unicode="(" horiz-adv-x="375" 
d="M304 -137q-60 58 -103 128t-68.5 154.5t-25.5 180.5q0 129 50 252.5t147 221.5l14 -14q-94 -95 -142.5 -215t-48.5 -245q0 -61 12 -122t36 -118.5t60 -111t83 -97.5z" />
    <glyph glyph-name="parenright" unicode=")" horiz-adv-x="375" 
d="M71 800q60 -58 103 -128t68.5 -154.5t25.5 -180.5q0 -129 -50 -252.5t-147 -221.5l-14 14q94 95 142.5 215t48.5 245q0 61 -12 122t-36 118.5t-60 111t-83 97.5z" />
    <glyph glyph-name="asterisk" unicode="*" horiz-adv-x="482" 
d="M240 532q-4 0 -12.5 41.5t-8.5 70.5q0 19 7 29.5t15 10.5q9 0 15 -10.5t6 -29.5q0 -29 -8.5 -70.5t-12.5 -41.5h-1zM219 519q-18 0 -56.5 13t-57.5 28.5t-19 28.5q0 6 5 10.5t13 4.5q21 0 60 -30.5t55 -54.5zM263 519q16 24 55 54.5t60 30.5q8 0 13 -4.5t5 -10.5
q0 -13 -19 -28.5t-57.5 -28.5t-56.5 -13zM219 495q-16 -24 -55 -54.5t-60 -30.5q-8 0 -13 4.5t-5 10.5q0 13 19 28.5t57.5 28.5t56.5 13zM263 495q18 0 56.5 -13t57.5 -28.5t19 -28.5q0 -6 -5 -10.5t-13 -4.5q-21 0 -60 30.5t-55 54.5zM241 482q4 0 12.5 -41.5t8.5 -70.5
q0 -19 -6 -29.5t-15 -10.5q-8 0 -15 10.5t-7 29.5q0 29 8.5 70.5t12.5 41.5h1z" />
    <glyph glyph-name="plus" unicode="+" horiz-adv-x="559" 
d="M24 328h245v250h19v-250h247v-20h-247v-241h-19v241h-245v20z" />
    <glyph glyph-name="comma" unicode="," horiz-adv-x="328" 
d="M170 -17q-21 0 -32.5 11.5t-11.5 31.5q0 44 43 44q20 0 32 -12t12 -31q0 -24 -11.5 -53t-62.5 -99l-16 12q49 69 61 98z" />
    <glyph glyph-name="hyphen" unicode="-" horiz-adv-x="767" 
d="M138 328h491v-20h-491v20z" />
    <glyph glyph-name="period" unicode="." horiz-adv-x="348" 
d="M175 -17q-21 0 -32.5 11.5t-11.5 31.5q0 44 43 44q20 0 32 -12t12 -31q0 -22 -11.5 -33t-31.5 -11z" />
    <glyph glyph-name="slash" unicode="/" horiz-adv-x="522" 
d="M502 657l-465 -672l-16 12l465 672z" />
    <glyph glyph-name="zero" unicode="0" horiz-adv-x="957" 
d="M480 -23q-78 0 -144 25.5t-113.5 72.5t-73 112.5t-25.5 142.5q0 80 25 147.5t72 114.5t112.5 72.5t143.5 25.5t144 -25.5t113.5 -72.5t73 -112.5t25.5 -142.5q0 -80 -25 -147.5t-72 -114.5t-112.5 -72.5t-143.5 -25.5zM480 -3q73 0 135 24t106 68.5t68 108t24 139.5
q0 73 -24 135t-69 106t-107.5 68t-135.5 24t-135 -24t-106 -68.5t-68 -108t-24 -139.5q0 -73 24 -135t69 -106t107.5 -68t135.5 -24z" />
    <glyph glyph-name="one" unicode="1" horiz-adv-x="392" 
d="M212 0h-19v645h-110v20h129v-665z" />
    <glyph glyph-name="two" unicode="2" horiz-adv-x="922" 
d="M769 237h20v-237h-684l-3 66q0 32 9 69.5t33 71t63 61.5t102 51t175.5 46.5t147.5 32.5t62.5 22t43 31t15.5 42q0 33 -18 64.5t-57.5 55.5t-96 38t-122.5 14q-71 0 -127 -12t-96.5 -42.5t-72.5 -98.5l-20 8q21 48 53 84t90.5 58.5t172.5 22.5q70 0 130.5 -15.5t103 -42
t61.5 -62t19 -72.5q0 -23 -13 -44.5t-53.5 -43t-159.5 -46t-164.5 -36.5t-90 -30t-85.5 -48.5t-63 -76t-22 -102.5l2 -46h645v217z" />
    <glyph glyph-name="three" unicode="3" horiz-adv-x="894" 
d="M441 670q-71 0 -127 -12t-96.5 -42.5t-72.5 -98.5l-20 8q21 48 53 84t90.5 58.5t172.5 22.5q73 0 132 -15.5t99 -41.5t60.5 -59t20.5 -66q0 -30 -19 -61.5t-60.5 -54.5t-94.5 -34q57 -13 99 -41.5t67 -68t25 -84.5q0 -37 -21 -73t-63.5 -64.5t-106 -45t-142.5 -16.5
q-153 0 -242 53.5t-110 159.5l20 4q19 -98 103 -147.5t229 -49.5q75 0 134.5 15t99 40.5t59.5 57.5t20 66q0 31 -17.5 63.5t-51.5 60t-83 44t-108 16.5h-88l1 18h87q62 0 120.5 20.5t90.5 55t32 66.5q0 30 -19 59t-56.5 52t-93 37t-123.5 14z" />
    <glyph glyph-name="four" unicode="4" horiz-adv-x="837" 
d="M781 231v-20h-154v-211h-20v211h-533l-13 25l546 481l20 -13v-473h154zM607 689l-521 -458h521v458z" />
    <glyph glyph-name="five" unicode="5" horiz-adv-x="944" 
d="M183 312q40 38 95.5 61.5t118 35t116.5 11.5q46 0 98.5 -6.5t96 -23t72.5 -39.5t45.5 -56t16.5 -74q0 -50 -17.5 -91t-48 -69.5t-70 -47t-91.5 -29.5t-116 -11q-141 0 -235.5 36.5t-127.5 108.5l18 8q30 -66 119.5 -99.5t225.5 -33.5q60 0 109 10t86.5 27t66 43t45 64
t16.5 84q0 37 -18 71t-58.5 58t-99 37t-133.5 13q-95 0 -184.5 -30.5t-146.5 -90.5l-19 11v375h631v-20h-611v-333z" />
    <glyph glyph-name="six" unicode="6" horiz-adv-x="946" 
d="M491 688q263 0 318 -186l-18 -8q-10 30 -28 60.5t-51 55.5t-86 41.5t-135 16.5q-168 0 -255.5 -88t-87.5 -261l1 -36q178 141 366 141q157 0 232.5 -58t75.5 -167q0 -50 -22.5 -91.5t-64.5 -71t-101.5 -45t-130.5 -15.5q-184 0 -280 87.5t-96 255.5q0 183 93 276t270 93z
M504 -4q84 0 155.5 24.5t107.5 73t36 105.5q0 99 -70.5 152t-217.5 53q-102 0 -192 -38.5t-172 -106.5q16 -129 106 -196t247 -67z" />
    <glyph glyph-name="seven" unicode="7" horiz-adv-x="785" 
d="M322 -23q27 80 78.5 192t134 247.5t165.5 229.5h-651l-1 19h664l14 -20q-41 -44 -91 -112t-102.5 -156.5t-103 -193.5t-87.5 -210z" />
    <glyph glyph-name="eight" unicode="8" horiz-adv-x="951" 
d="M476 698q81 0 144 -14.5t105 -39t60.5 -58.5t18.5 -70q0 -23 -22 -56.5t-67.5 -62.5t-116.5 -43q59 -9 115 -31.5t89.5 -59.5t33.5 -74q0 -44 -20 -85t-66 -71t-115 -46.5t-159 -16.5q-71 0 -144 13.5t-124.5 46.5t-71.5 74t-20 85q0 30 25.5 65t82.5 62t130 38
q-71 14 -116.5 43t-67.5 62.5t-22 56.5q0 36 18.5 70t60.5 58.5t105 39t144 14.5zM476 678q-60 0 -115 -9t-98.5 -28.5t-69 -51t-25.5 -73.5q0 -15 13 -39t45 -49.5t90.5 -44t140.5 -20.5h19q88 0 150 18t96 44t48 51t14 40q0 42 -25.5 73.5t-69 51t-98.5 28.5t-115 9z
M476 -10q67 0 127.5 10.5t108.5 34t76 62.5t28 92q0 26 -20.5 53t-62.5 50t-107.5 37t-149.5 14q-63 0 -125 -9.5t-109.5 -30.5t-76.5 -51t-29 -63q0 -40 19 -77.5t62.5 -64.5t108.5 -42t150 -15z" />
    <glyph glyph-name="nine" unicode="9" horiz-adv-x="921" 
d="M769 342l-1 17q-41 -36 -93 -65t-115 -48.5t-111 -19.5q-72 0 -132.5 17.5t-103 50t-65.5 77.5t-23 97q0 48 27 91t73.5 73.5t105.5 47.5t119 17q65 0 125.5 -20.5t108.5 -63t76.5 -111.5t28.5 -160q0 -374 -348 -374q-123 0 -206.5 46t-112.5 126l19 7
q26 -74 104.5 -116.5t195.5 -42.5q328 0 328 354zM449 246q39 0 95 16t114.5 46.5t108.5 76.5q-3 36 -15 78.5t-36.5 80.5t-63 68.5t-92 47.5t-110.5 17t-112 -15.5t-98.5 -43.5t-69 -67t-25.5 -83q0 -48 21.5 -89t61.5 -71t97 -46t124 -16z" />
    <glyph glyph-name="colon" unicode=":" horiz-adv-x="209" 
d="M105 413q-21 0 -32.5 11.5t-11.5 31.5q0 44 43 44q20 0 32 -12t12 -31q0 -22 -11.5 -33t-31.5 -11zM105 -17q-21 0 -32.5 11.5t-11.5 31.5q0 44 43 44q20 0 32 -12t12 -31q0 -22 -11.5 -33t-31.5 -11z" />
    <glyph glyph-name="semicolon" unicode=";" horiz-adv-x="227" 
d="M117 413q-21 0 -32.5 11.5t-11.5 31.5q0 44 43 44q20 0 32 -12t12 -31q0 -22 -11.5 -33t-31.5 -11zM117 -17q-21 0 -32.5 11.5t-11.5 31.5q0 44 43 44q20 0 32 -12t12 -31q0 -24 -11.5 -53t-62.5 -99l-16 12q49 69 61 98z" />
    <glyph glyph-name="less" unicode="&#x3c;" horiz-adv-x="405" 
d="M360 536l-306 -213l306 -212v-23l-332 231v10l332 231v-24z" />
    <glyph glyph-name="equal" unicode="=" horiz-adv-x="707" 
d="M98 423h511v-20h-511v20zM98 243h511v-20h-511v20z" />
    <glyph glyph-name="greater" unicode="&#x3e;" horiz-adv-x="405" 
d="M45 560l332 -231v-10l-332 -231v23l306 212l-306 213v24z" />
    <glyph glyph-name="question" unicode="?" horiz-adv-x="678" 
d="M18 574q48 67 124 91.5t176 24.5q60 0 120 -12q74 -16 117 -47t60 -67.5t17 -78.5q0 -38 -15.5 -69.5t-52 -55.5t-127.5 -50t-115.5 -45.5t-30 -36.5t-5.5 -30v-57h-20l-1 57q0 22 9.5 43t36 39.5t98 40t99.5 32.5t52 27.5t38 42.5t14 62q0 47 -22 81.5t-63.5 57.5
t-96.5 35q-51 11 -112 11q-68 0 -123 -11t-91.5 -33.5t-67.5 -63.5zM278 -18q-17 0 -27 10t-10 26q0 13 7.5 25t28.5 12q17 0 27 -10t10 -26q0 -13 -7.5 -25t-28.5 -12z" />
    <glyph glyph-name="at" unicode="@" horiz-adv-x="981" 
d="M779 -63q-41 -26 -111.5 -43.5t-170.5 -17.5q-46 0 -101.5 10t-107 37t-88.5 65t-60 84.5t-31 89.5t-8 75q0 99 49 186.5t139.5 137t206.5 49.5q98 0 174 -30t124 -79.5t71 -110t23 -120.5q0 -33 -8 -69t-30 -72.5t-56 -55t-69 -18.5q-32 0 -50 20.5t-25 66.5
q-23 -42 -64.5 -65t-96.5 -23q-31 0 -64.5 9t-62 31.5t-47.5 60.5t-19 91q0 89 52.5 142t138.5 53q53 0 94 -22t65 -61v68h40v-20h-20v-195q0 -63 11.5 -99.5t47.5 -36.5q41 0 72.5 23t51 66.5t19.5 105.5q0 57 -22 113.5t-61 97t-87.5 65.5t-102.5 34.5t-99 9.5
q-100 0 -184.5 -40.5t-137.5 -125t-53 -187.5q0 -65 23.5 -126t71 -109.5t119.5 -77t162 -28.5q84 0 154.5 14.5t116.5 43.5zM646 323q-20 43 -63 70.5t-96 27.5q-77 0 -124 -47.5t-47 -127.5q0 -78 47.5 -125t125.5 -47q54 0 96.5 27.5t61.5 73.5q-1 11 -1 148z" />
    <glyph glyph-name="A" unicode="A" horiz-adv-x="807" 
d="M596 274h-385l-137 -274h-20l339 675h21l339 -675h-20zM586 294l-182 361h-1l-182 -361h365z" />
    <glyph glyph-name="B" unicode="B" horiz-adv-x="931" 
d="M166 0v665h435q60 0 101.5 -17.5t65.5 -50t24 -75.5q0 -47 -30 -89.5t-81 -61.5q62 -16 94.5 -60.5t32.5 -100.5q0 -38 -14.5 -75.5t-41.5 -68t-65 -48.5t-83 -18h-438zM186 645v-266h429q42 0 76.5 18.5t56.5 52.5t22 72q0 37 -21 65t-58 43t-90 15h-415zM186 359v-339
h415q31 0 63.5 11t60 36.5t45.5 62.5t18 80q0 37 -18 73t-58.5 56t-93.5 20h-432z" />
    <glyph glyph-name="C" unicode="C" horiz-adv-x="902" 
d="M478 665q-73 0 -137.5 -21.5t-112.5 -63t-74.5 -103.5t-26.5 -138q0 -71 25.5 -134.5t72 -109.5t110.5 -71.5t137 -25.5q55 0 108 12.5t97 40t73.5 72.5t36.5 106l20 -2q-9 -81 -54 -136t-117.5 -84t-163.5 -29q-77 0 -145 27t-117 76t-76 115.5t-27 142.5q0 82 28 147.5
t78.5 109.5t118.5 66.5t146 22.5q96 0 162.5 -29t106 -78t54.5 -118l-18 -8q-28 110 -106.5 161.5t-198.5 51.5z" />
    <glyph glyph-name="D" unicode="D" horiz-adv-x="937" 
d="M166 0v665h330q72 0 134 -22.5t106.5 -64.5t68.5 -100t24 -126q0 -74 -23.5 -139t-68 -112.5t-106.5 -74t-136 -26.5h-329zM186 645v-625h309q69 0 128 25t100.5 69.5t63.5 106t22 131.5q0 63 -22.5 117.5t-64.5 94t-100 60.5t-126 21h-310z" />
    <glyph glyph-name="E" unicode="E" horiz-adv-x="832" 
d="M778 20v-20h-612v665h593v-20h-574v-295h491v-20h-491v-310h593z" />
    <glyph glyph-name="F" unicode="F" horiz-adv-x="802" 
d="M166 0v665h594v-20h-574v-288h491v-20h-491v-337h-20z" />
    <glyph glyph-name="G" unicode="G" horiz-adv-x="903" 
d="M463 670q-73 0 -135 -24t-106 -68.5t-68 -108t-24 -139.5q0 -73 24 -135t69 -106t107.5 -68t135.5 -24q70 0 127 22t96.5 64t61.5 101.5t25 131.5h-314v20h334q0 -82 -23 -149.5t-66 -114t-104.5 -71t-136.5 -24.5q-78 0 -144 25.5t-113.5 72.5t-73 112.5t-25.5 142.5
q0 80 25 147.5t72 114.5t112.5 72.5t143.5 25.5q96 0 162.5 -29t106 -78t54.5 -118l-18 -8q-28 110 -106.5 161.5t-198.5 51.5z" />
    <glyph glyph-name="H" unicode="H" horiz-adv-x="965" 
d="M799 665v-665h-20v332h-593v-332h-20v665h20v-313h593v313h20z" />
    <glyph glyph-name="I" unicode="I" horiz-adv-x="352" 
d="M186 0h-20v665h20v-665z" />
    <glyph glyph-name="J" unicode="J" horiz-adv-x="829" 
d="M680 665v-419q0 -60 -19 -110t-57.5 -85.5t-96 -55t-130.5 -19.5q-71 0 -126.5 18.5t-94 53t-61 83t-31.5 107.5l20 3q13 -85 52 -138.5t98.5 -80t142.5 -26.5q69 0 122.5 18t89 51t53.5 79.5t18 101.5v419h20z" />
    <glyph glyph-name="K" unicode="K" horiz-adv-x="955" 
d="M916 -8q-10 -3 -25.5 -6t-25.5 -3q-39 0 -79.5 21.5t-78.5 58t-78 87.5t-93.5 132.5t-66.5 99.5l-283 -206v-176h-20v665h20v-464l638 464h34l-372 -271l41 -61q117 -177 173.5 -234t95 -76.5t69.5 -19.5q20 0 44 8z" />
    <glyph glyph-name="L" unicode="L" horiz-adv-x="763" 
d="M725 20v-20h-559v665h20v-645h539z" />
    <glyph glyph-name="M" unicode="M" horiz-adv-x="1085" 
d="M533 0l-347 623v-623h-20v665h22l354 -640l355 640h22v-665h-20v623l-347 -623h-19z" />
    <glyph glyph-name="N" unicode="N" horiz-adv-x="995" 
d="M187 637v-637h-21v665h22l621 -645v645h20v-665h-27z" />
    <glyph glyph-name="O" unicode="O" horiz-adv-x="929" 
d="M466 -23q-78 0 -144 25.5t-113.5 72.5t-73 112.5t-25.5 142.5q0 80 25 147.5t72 114.5t112.5 72.5t143.5 25.5t144 -25.5t113.5 -72.5t73 -112.5t25.5 -142.5q0 -80 -25 -147.5t-72 -114.5t-112.5 -72.5t-143.5 -25.5zM466 -3q73 0 135 24t106 68.5t68 108t24 139.5
q0 73 -24 135t-69 106t-107.5 68t-135.5 24t-135 -24t-106 -68.5t-68 -108t-24 -139.5q0 -73 24 -135t69 -106t107.5 -68t135.5 -24z" />
    <glyph glyph-name="P" unicode="P" horiz-adv-x="918" 
d="M186 269v-269h-20v665h400q271 0 271 -190q0 -35 -16 -72t-46.5 -67t-74.5 -48.5t-97 -18.5h-417zM186 645v-356h417q48 0 88.5 16.5t68.5 44t42.5 60.5t14.5 65q0 170 -251 170h-380z" />
    <glyph glyph-name="Q" unicode="Q" horiz-adv-x="927" 
d="M453 -22q-76 2 -140 28t-109.5 72.5t-70 111t-24.5 140.5q0 80 25 147.5t72 114.5t112.5 72.5t143.5 25.5t144 -25.5t113.5 -72.5t73 -112.5t25.5 -142.5q0 -59 -16.5 -120.5t-57 -113.5t-92 -79.5t-97 -36t-81.5 -9.5v-128h-21v128zM474 -3q34 1 76.5 9t84.5 30.5
t74 55.5t53 76.5t28.5 88t7.5 80.5q0 73 -24 135t-69 106t-107.5 68t-135.5 24t-135 -24t-106 -68.5t-68 -108t-24 -139.5q0 -71 23 -132t60.5 -99.5t79.5 -60.5t84.5 -30.5t76.5 -9.5v226h21v-227z" />
    <glyph glyph-name="R" unicode="R" horiz-adv-x="935" 
d="M586 269l37 -133q18 -64 48.5 -99t85.5 -35q37 0 86 16v-21q-46 -15 -86 -15q-57 0 -93.5 33.5t-59.5 115.5l-39 138h-379v-269h-20v665h400q271 0 271 -190q0 -35 -16 -72t-46.5 -67t-74.5 -48.5t-97 -18.5h-17zM186 645v-356h417q48 0 88.5 16.5t68.5 44t42.5 60.5
t14.5 65q0 170 -251 170h-380z" />
    <glyph glyph-name="S" unicode="S" horiz-adv-x="885" 
d="M439 669q-64 0 -122 -14.5t-101 -40.5t-63 -62.5t-20 -75.5q0 -34 27.5 -58.5t85.5 -36.5t186 -18q146 -6 216.5 -23t103.5 -52t33 -84q0 -46 -20.5 -89t-66 -74t-109 -48.5t-137.5 -17.5q-150 0 -244.5 51t-113.5 147l20 7q7 -39 32 -73t67.5 -59t103 -39t135.5 -14
q54 0 117 13t110.5 44.5t66.5 71t19 80.5q0 33 -16.5 57t-45 39t-78.5 26t-193 17q-121 5 -174 14t-84 25t-46 39t-15 55q0 43 21 83t67 69t108 45t130 16q93 0 162 -22.5t113.5 -63t62.5 -101.5l-18 -8q-27 83 -107.5 129t-212.5 46z" />
    <glyph glyph-name="T" unicode="T" horiz-adv-x="776" 
d="M398 0h-20v645h-342v20h704l-2 -20h-340v-645z" />
    <glyph glyph-name="U" unicode="U" horiz-adv-x="940" 
d="M147 665h20v-419q0 -55 21 -101.5t60.5 -79.5t96 -51t125.5 -18t125.5 18t96 51t60.5 79.5t21 101.5v419h20v-419q0 -59 -22 -109t-64 -86t-102.5 -55.5t-134.5 -19.5t-134.5 19.5t-102.5 55.5t-64 86t-22 109v419z" />
    <glyph glyph-name="V" unicode="V" horiz-adv-x="791" 
d="M395 20h1l319 645h20l-329 -665h-21l-329 665h20z" />
    <glyph glyph-name="W" unicode="W" horiz-adv-x="1047" 
d="M527 665l206 -624l225 624h21l-239 -665h-15l-202 614l-201 -614h-15l-239 665h21l225 -624l205 624h8z" />
    <glyph glyph-name="X" unicode="X" horiz-adv-x="829" 
d="M414 332l-336 -332h-29l351 346l-314 319h28l300 -305l300 305h28l-313 -319l351 -346h-29z" />
    <glyph glyph-name="Y" unicode="Y" horiz-adv-x="746" 
d="M383 0h-20v213l-317 452h26l301 -432l301 432h26l-317 -452v-213z" />
    <glyph glyph-name="Z" unicode="Z" horiz-adv-x="761" 
d="M710 20v-20h-652v20l581 626h-567v19h586l10 -19l-582 -626h624z" />
    <glyph glyph-name="bracketleft" unicode="[" horiz-adv-x="399" 
d="M166 800h190v-20h-170v-895h170v-20h-190v935z" />
    <glyph glyph-name="backslash" unicode="\" horiz-adv-x="522" 
d="M36 671l465 -672l-16 -12l-465 672z" />
    <glyph glyph-name="bracketright" unicode="]" horiz-adv-x="399" 
d="M233 -135h-190v20h170v895h-170v20h190v-935z" />
    <glyph glyph-name="underscore" unicode="_" horiz-adv-x="968" 
d="M138 9h692v-20h-692v20z" />
    <glyph glyph-name="grave" unicode="`" horiz-adv-x="313" 
d="M192 730h-15l-66 168h41z" />
    <glyph glyph-name="a" unicode="a" horiz-adv-x="753" 
d="M596 109q-32 -61 -93.5 -95.5t-141.5 -34.5q-120 0 -194 73.5t-74 192.5q0 61 19 111.5t54 86t84 54.5t108 19q38 0 84.5 -11.5t88 -43.5t65.5 -77v116h20v-500h-20v109zM361 -1q89 0 150.5 44.5t84.5 123.5v163q-22 77 -85.5 121.5t-152.5 44.5q-54 0 -99.5 -17.5
t-78 -50.5t-50 -80t-17.5 -103q0 -54 17.5 -100t50.5 -78.5t79.5 -50t100.5 -17.5z" />
    <glyph glyph-name="b" unicode="b" horiz-adv-x="751" 
d="M394 -21q-80 0 -142 34t-94 94v-107h-20v665h20v-278q15 29 44.5 59.5t79.5 50t109 19.5q120 0 194.5 -73.5t74.5 -192.5q0 -123 -73 -197t-193 -74zM394 -1q54 0 100 17.5t78.5 50.5t50 80t17.5 103q0 110 -69 178t-180 68q-88 0 -149 -44t-84 -121v-170
q23 -75 85.5 -118.5t150.5 -43.5z" />
    <glyph glyph-name="c" unicode="c" horiz-adv-x="669" 
d="M579 362q-18 55 -77 94.5t-144 39.5q-54 0 -99.5 -17.5t-78 -50.5t-50 -80t-17.5 -103q0 -54 17.5 -100t50.5 -78.5t79.5 -50t100.5 -17.5q57 0 105.5 20t76 51.5t40.5 60.5l19 -8q-30 -68 -93 -106t-148 -38q-120 0 -194 73.5t-74 192.5q0 61 19 111.5t54 86t84 54.5
t108 19q63 0 112 -20t82 -54t43 -73z" />
    <glyph glyph-name="d" unicode="d" horiz-adv-x="752" 
d="M614 0h-20v109q-32 -61 -93.5 -95.5t-141.5 -34.5q-120 0 -194 73.5t-74 192.5q0 61 19 111.5t54 86t84 54.5t108 19q38 0 84.5 -11.5t88 -43.5t65.5 -77v281h20v-665zM359 -1q89 0 150.5 44.5t84.5 123.5v163q-22 77 -85.5 121.5t-152.5 44.5q-54 0 -99.5 -17.5
t-78 -50.5t-50 -80t-17.5 -103q0 -54 17.5 -100t50.5 -78.5t79.5 -50t100.5 -17.5z" />
    <glyph glyph-name="e" unicode="e" horiz-adv-x="708" 
d="M358 516q56 0 104 -17t83.5 -49t56 -77t24.5 -99l-8 -42l-505 4q3 -107 71 -172t177 -65q77 0 134.5 34t86.5 96l18 -10q-30 -66 -93.5 -103t-145.5 -37q-120 0 -194 73.5t-74 192.5q0 61 19 111.5t54 86t84 54.5t108 19zM113 256l489 -4l4 23q-4 99 -73 160t-175 61
q-67 0 -119.5 -26t-81 -69t-36 -81t-8.5 -64z" />
    <glyph glyph-name="f" unicode="f" horiz-adv-x="316" 
d="M147 0v480h-70v20h70q2 84 37.5 129.5t113.5 55.5v-20q-59 -8 -94 -45.5t-37 -119.5h79v-20h-79v-480h-20z" />
    <glyph glyph-name="g" unicode="g" horiz-adv-x="754" 
d="M616 35q0 -256 -257 -256q-73 0 -133.5 27t-93.5 82l17 10q15 -25 43.5 -49t73 -37t93.5 -13q237 0 237 236v74q-32 -61 -93.5 -95.5t-141.5 -34.5q-120 0 -194 73.5t-74 192.5q0 61 19 111.5t54 86t84 54.5t108 19q38 0 84.5 -11.5t88 -43.5t65.5 -77v116h20v-465z
M361 -1q89 0 150.5 44.5t84.5 123.5v163q-22 77 -85.5 121.5t-152.5 44.5q-54 0 -99.5 -17.5t-78 -50.5t-50 -80t-17.5 -103q0 -54 17.5 -100t50.5 -78.5t79.5 -50t100.5 -17.5z" />
    <glyph glyph-name="h" unicode="h" 
d="M158 358q47 76 115.5 114.5t164.5 38.5q40 0 78.5 -14t68 -39.5t46.5 -61.5t17 -78v-318h-20v318q0 28 -10.5 58t-35 55.5t-62 42.5t-82.5 17q-37 0 -86.5 -11t-101 -48t-92.5 -104v-328h-20v665h20v-307z" />
    <glyph glyph-name="i" unicode="i" horiz-adv-x="296" 
d="M148 626q-13 0 -22 8.5t-9 21.5q0 16 9 23.5t21 7.5q13 0 22 -8.5t9 -21.5q0 -16 -9 -23.5t-21 -7.5zM158 0h-20v500h20v-500z" />
    <glyph glyph-name="j" unicode="j" horiz-adv-x="296" 
d="M148 626q-13 0 -22 8.5t-9 21.5q0 16 9 23.5t21 7.5q13 0 22 -8.5t9 -21.5q0 -16 -9 -23.5t-21 -7.5zM158 35q0 -248 -242 -256v20q222 8 222 236v465h20v-465z" />
    <glyph glyph-name="k" unicode="k" horiz-adv-x="706" 
d="M625 500l-219 -187l30 -53q59 -104 90.5 -150.5t61.5 -72t62 -25.5q14 0 40 7l6 -19q-27 -8 -46 -8q-23 0 -44 9.5t-40.5 28t-46 54.5t-100.5 166l-28 50l-233 -198v-102h-20v665h20v-537l437 372h30z" />
    <glyph glyph-name="l" unicode="l" horiz-adv-x="334" 
d="M147 208q0 -103 38 -148.5t113 -45.5v-20q-84 0 -127.5 50.5t-43.5 163.5v457h20v-457z" />
    <glyph glyph-name="m" unicode="m" horiz-adv-x="1138" 
d="M565 328q0 76 -46.5 119.5t-120.5 43.5q-67 0 -132 -45.5t-108 -122.5v-323h-20v500h20v-139q22 33 57.5 68.5t84.5 58.5t98 23q75 0 125 -40.5t60 -112.5q46 72 110 112.5t132 40.5q61 0 103 -25t63 -65t21 -93v-328h-20v328q0 76 -46.5 119.5t-120.5 43.5
q-67 0 -132 -45.5t-108 -122.5v-323h-20v328z" />
    <glyph glyph-name="n" unicode="n" horiz-adv-x="771" 
d="M158 358q47 76 115.5 114.5t164.5 38.5q40 0 78.5 -14t68 -39.5t46.5 -61.5t17 -78v-318h-20v318q0 28 -10.5 58t-35 55.5t-62 42.5t-82.5 17q-37 0 -86.5 -11t-101 -48t-92.5 -104v-328h-20v500h20v-142z" />
    <glyph glyph-name="o" unicode="o" horiz-adv-x="720" 
d="M361 -21q-120 0 -194 73.5t-74 192.5q0 61 19 111.5t54 86t84 54.5t108 19q120 0 194.5 -73.5t74.5 -192.5q0 -123 -73 -197t-193 -74zM361 -1q54 0 100 17.5t78.5 50.5t50 80t17.5 103q0 110 -69 178t-180 68q-54 0 -99.5 -17.5t-78 -50.5t-50 -80t-17.5 -103
q0 -54 17.5 -100t50.5 -78.5t79.5 -50t100.5 -17.5z" />
    <glyph glyph-name="p" unicode="p" horiz-adv-x="754" 
d="M138 -211v711h20v-115q23 45 63.5 76.5t86.5 43t84 11.5q120 0 194.5 -73.5t74.5 -192.5q0 -123 -73 -197t-193 -74q-82 0 -143.5 35t-93.5 97v-322h-20zM392 496q-88 0 -149.5 -44t-84.5 -122v-167q23 -76 86 -120t151 -44q54 0 100 17.5t78.5 50.5t50 80t17.5 103
q0 110 -69 178t-180 68z" />
    <glyph glyph-name="q" unicode="q" horiz-adv-x="753" 
d="M595 -211v318q-32 -61 -93 -94.5t-141 -33.5q-120 0 -194 73.5t-74 192.5q0 61 19 111.5t54 86t84 54.5t108 19t109.5 -20t81.5 -50.5t46 -59.5v114h20v-711h-20zM361 -1q32 0 67 7.5t67.5 26t59 51t40.5 80.5v169q-23 76 -85.5 119.5t-151.5 43.5q-54 0 -99.5 -17.5
t-78 -50.5t-50 -80t-17.5 -103q0 -54 17.5 -100t50.5 -78.5t79.5 -50t100.5 -17.5z" />
    <glyph glyph-name="r" unicode="r" horiz-adv-x="479" 
d="M158 347q21 33 53 64.5t76.5 55.5t94 34t86.5 10v-20q-50 0 -109 -17.5t-112.5 -58.5t-88.5 -97v-318h-20v500h20v-153z" />
    <glyph glyph-name="s" unicode="s" horiz-adv-x="670" 
d="M573 397q-8 15 -32 38.5t-73.5 42t-116.5 18.5q-36 0 -77.5 -6t-76.5 -20t-57 -38t-22 -58q0 -12 6.5 -26.5t24 -26t49.5 -23t144 -30.5t154 -34.5t62 -33.5t26.5 -36t6.5 -34q0 -72 -65.5 -110.5t-179.5 -38.5q-72 0 -126.5 17t-92 49.5t-54.5 80.5l20 9
q12 -43 50 -73.5t92.5 -46.5t110.5 -16q105 0 165 33t60 96q0 21 -13 40t-49.5 35.5t-137.5 34.5t-135.5 25.5t-62 19t-45 26.5t-24 31.5t-6.5 31.5q0 31 14 55t42.5 43t80.5 31.5t116 12.5q62 0 113.5 -17t80 -42t42.5 -46z" />
    <glyph glyph-name="t" unicode="t" horiz-adv-x="355" 
d="M309 -6q-84 0 -127.5 50.5t-43.5 163.5v272h-70v20h70v165h20v-165h125v-20h-125v-272q0 -103 38 -148.5t113 -45.5v-20z" />
    <glyph glyph-name="u" unicode="u" horiz-adv-x="770" 
d="M612 142q-48 -76 -116 -114.5t-164 -38.5q-40 0 -78.5 14t-68 39.5t-46.5 61.5t-17 78v318h20v-318q0 -28 10.5 -58t35 -55.5t62 -42.5t82.5 -17q37 0 86.5 11t101 48t92.5 104v328h20v-500h-20v142z" />
    <glyph glyph-name="v" unicode="v" horiz-adv-x="613" 
d="M61 500l240 -480h12l238 480h23l-249 -500h-36l-251 500h23z" />
    <glyph glyph-name="w" unicode="w" horiz-adv-x="948" 
d="M70 500l198 -480h12l189 480h10l189 -480h12l198 480h23l-209 -500h-36l-182 460l-182 -460h-36l-209 500h23z" />
    <glyph glyph-name="x" unicode="x" horiz-adv-x="615" 
d="M546 0l-238 236l-238 -236h-28l252 252l-254 248h29l239 -234l238 234h29l-254 -249l253 -251h-28z" />
    <glyph glyph-name="y" unicode="y" horiz-adv-x="588" 
d="M552 500l-349 -710h-21l104 212l-251 498h23l238 -476h1l232 476h23z" />
    <glyph glyph-name="z" unicode="z" horiz-adv-x="584" 
d="M71 20h469v-20h-497v20l466 460h-456v20h477v-27z" />
    <glyph glyph-name="braceleft" unicode="{" horiz-adv-x="373" 
d="M166 208q0 64 -11 81.5t-28.5 20.5t-25.5 3h-11v20h11q31 1 44 11t17 30.5t4 63.5v172q0 104 13.5 141t44 48t96.5 11v-20q-57 0 -83.5 -9.5t-38.5 -43t-12 -127.5v-172q0 -53 -6.5 -79t-24.5 -36q14 -8 22.5 -29t8.5 -86v-163q0 -79 8.5 -115.5t33 -50.5t92.5 -14v-20
q-66 0 -96.5 11t-44 48t-13.5 141v163z" />
    <glyph glyph-name="bar" unicode="|" horiz-adv-x="352" 
d="M166 795h20v-923h-20v923z" />
    <glyph glyph-name="braceright" unicode="}" horiz-adv-x="373" 
d="M207 447q0 -64 11 -81.5t28.5 -20.5t25.5 -3h11v-20h-11q-31 -1 -44 -11t-17 -30.5t-4 -63.5v-172q0 -104 -13.5 -141t-44 -48t-96.5 -11v20q57 0 83.5 9.5t38.5 43t12 127.5v172q0 53 6.5 79t24.5 36q-14 8 -22.5 29t-8.5 86v163q0 79 -8.5 115.5t-33 50.5t-92.5 14v20
q66 0 96.5 -11t44 -48t13.5 -141v-163z" />
    <glyph glyph-name="asciitilde" unicode="~" horiz-adv-x="609" 
d="M491 359q-23 -82 -87 -82q-42 0 -106 35t-81.5 39.5t-27.5 4.5q-35 0 -49 -61l-20 4q19 78 70 78q11 0 30.5 -5t71.5 -33t74 -35.5t38 -7.5q48 0 67 67z" />
    <glyph glyph-name="exclamdown" unicode="&#xa1;" horiz-adv-x="295" 
d="M147 665q17 0 27 -10t10 -26q0 -13 -7.5 -25t-28.5 -12q-17 0 -27 10t-10 26q0 13 7.5 25t28.5 12zM158 -18h-20v524h20v-524z" />
    <glyph glyph-name="cent" unicode="&#xa2;" horiz-adv-x="737" 
d="M629 470q-19 40 -54 69t-83 43.5t-97 14.5q-59 0 -110.5 -17t-90 -50t-60 -82.5t-21.5 -111.5q0 -57 20.5 -107t58 -87t88.5 -57.5t109 -20.5q69 0 123.5 21.5t88 61.5t39.5 100l20 -2q-5 -50 -31 -92.5t-82.5 -73.5t-140.5 -35v-74h-21v74q-62 1 -116 23t-93.5 61.5
t-61 93t-21.5 114.5q0 65 22 117.5t62 88t93.5 55t114.5 20.5v78h20v-78q90 -2 150.5 -37.5t87.5 -97.5z" />
    <glyph glyph-name="sterling" unicode="&#xa3;" horiz-adv-x="890" 
d="M727 563q-36 52 -107.5 81t-150.5 29q-55 0 -103.5 -14t-85 -42t-57 -71.5t-20.5 -98.5q0 -24 7 -73h272v-20h-269q22 -141 22 -205q0 -39 -5 -63q12 -4 85 -34.5t123.5 -41t94.5 -10.5q57 0 106 17t84.5 47.5t54.5 72.5t19 90l-2 28l20 3l2 -31q0 -52 -20.5 -97.5
t-58.5 -79t-91 -52t-114 -18.5q-49 0 -103 10.5t-125.5 41.5t-79.5 34q-22 -70 -92 -70q-29 0 -46.5 15.5t-17.5 36.5q0 23 20 39.5t56 16.5q26 0 61 -10q4 21 4 52q0 22 -1.5 43.5t-18.5 164.5h-88v20h86q-5 43 -5 73q0 61 23 108t62.5 77t91 45t107.5 15q85 0 162.5 -32.5
t113.5 -88.5zM204 72q-20 9 -59 9q-21 0 -32.5 -11t-11.5 -25q0 -11 8 -20t23 -9q24 0 43.5 17t28.5 39z" />
    <glyph glyph-name="yen" unicode="&#xa5;" horiz-adv-x="786" 
d="M383 220v133h-261v20h240l-303 292h26l308 -292l308 292h26l-303 -292h241v-20h-262v-133h262v-20h-262v-200h-20v200h-261v20h261z" />
    <glyph glyph-name="brokenbar" unicode="&#xa6;" horiz-adv-x="322" 
d="M151 795h20v-368h-20v368zM151 240h20v-368h-20v368z" />
    <glyph glyph-name="section" unicode="&#xa7;" horiz-adv-x="749" 
d="M379 1q104 0 170.5 38.5t66.5 101.5q0 33 -22 57.5t-69 39t-153.5 26t-141 21t-55.5 21t-32.5 28.5t-11.5 40q0 62 53 97q-53 26 -53 74q0 44 32 76t87 49t113 17q40 0 89.5 -10t92.5 -36t64 -59l-14 -14q-6 12 -20.5 27t-42 31t-70.5 28.5t-99 12.5q-53 0 -103 -14.5
t-79.5 -42t-29.5 -65.5q0 -42 60 -64q17 -6 41.5 -11.5t142.5 -19t162.5 -34t61.5 -46t17 -58.5q0 -24 -10.5 -48t-27.5 -42q16 -14 27 -34.5t11 -46.5q0 -72 -72 -116t-185 -44q-72 0 -126.5 17t-92 49.5t-54.5 80.5l20 9q12 -43 50 -73.5t92.5 -46.5t110.5 -16zM151 374
q0 -20 15.5 -38t56.5 -29.5t147 -23.5t148 -24.5t63 -25.5q16 16 25.5 37t9.5 42q0 37 -24.5 60t-69 36.5t-147.5 25t-131 18.5t-37 10q-56 -33 -56 -88z" />
    <glyph glyph-name="dieresis" unicode="&#xa8;" horiz-adv-x="523" 
d="M162 783q-13 0 -22 8.5t-9 21.5q0 16 9 23.5t21 7.5q13 0 22 -8.5t9 -21.5q0 -16 -9 -23.5t-21 -7.5zM362 783q-13 0 -22 8.5t-9 21.5q0 16 9 23.5t21 7.5q13 0 22 -8.5t9 -21.5q0 -16 -9 -23.5t-21 -7.5z" />
    <glyph glyph-name="copyright" unicode="&#xa9;" horiz-adv-x="986" 
d="M494 -23q-85 0 -158 25.5t-124.5 72.5t-79.5 112.5t-28 142.5q0 80 27.5 147.5t79 114.5t123.5 72.5t157 25.5t158 -25.5t125 -72.5t80 -112.5t28 -142.5q0 -80 -27.5 -147.5t-79 -114.5t-124 -72.5t-157.5 -25.5zM494 -3q81 0 149.5 24t117 68.5t75 108t26.5 139.5
q0 73 -26.5 135t-76 106t-118.5 68t-150 24t-149.5 -24t-117 -68.5t-74.5 -108t-26 -139.5q0 -73 26.5 -135t75.5 -106t118 -68t150 -24zM633 420q-21 34 -54.5 49.5t-85.5 15.5q-70 0 -115 -39t-45 -109q0 -67 44.5 -111.5t112.5 -44.5q38 0 70 12.5t50.5 34.5t22.5 56
l20 -2q-3 -24 -14 -46.5t-34 -40.5t-55.5 -26t-59.5 -8q-28 0 -58 9t-56.5 30t-44.5 56t-18 81q0 50 21 86.5t61 59t98 22.5q116 0 155 -78z" />
    <glyph glyph-name="ordfeminine" unicode="&#xaa;" horiz-adv-x="445" 
d="M412 266l-80 161h-220l-80 -161h-22l199 399h27l198 -399h-22zM122 447h200l-98 198h-3z" />
    <glyph glyph-name="guillemotleft" unicode="&#xab;" horiz-adv-x="597" 
d="M78 268v25l209 178l13 -5l-188 -184l188 -186l-13 -5zM285 268v25l209 178l13 -5l-188 -184l188 -186l-13 -5z" />
    <glyph glyph-name="registered" unicode="&#xae;" horiz-adv-x="986" 
d="M494 -23q-85 0 -158 25.5t-124.5 72.5t-79.5 112.5t-28 142.5q0 80 27.5 147.5t79 114.5t123.5 72.5t157 25.5t158 -25.5t125 -72.5t80 -112.5t28 -142.5q0 -80 -27.5 -147.5t-79 -114.5t-124 -72.5t-157.5 -25.5zM494 -3q81 0 149.5 24t117 68.5t75 108t26.5 139.5
q0 73 -26.5 135t-76 106t-118.5 68t-150 24t-149.5 -24t-117 -68.5t-74.5 -108t-26 -139.5q0 -73 26.5 -135t75.5 -106t118 -68t150 -24zM679 179q-15 -3 -28 -3q-54 0 -80 79l-29 88h-175v-157h-20v316h196q62 0 96.5 -20t34.5 -61q0 -74 -111 -78l27 -82q10 -30 26 -47.5
t35 -17.5l24 3zM367 363h180q107 0 107 58q0 31 -29.5 46t-81.5 15h-176v-119z" />
    <glyph glyph-name="macron" unicode="&#xaf;" horiz-adv-x="656" 
d="M518 819v-20h-380v20h380z" />
    <glyph glyph-name="degree" unicode="&#xb0;" horiz-adv-x="514" 
d="M258 443q-37 0 -65 17.5t-38.5 44t-10.5 49.5q0 52 31 84t81 32t81.5 -31t31.5 -80q0 -38 -17.5 -66.5t-44 -39t-49.5 -10.5zM258 463q41 0 66 26.5t25 69.5q0 41 -26 66t-67 25t-66.5 -26.5t-25.5 -69.5q0 -40 26.5 -65.5t67.5 -25.5z" />
    <glyph glyph-name="uni00B2" unicode="&#xb2;" horiz-adv-x="596" 
d="M527 230h-445l-2 43q0 48 19.5 85.5t64 62.5t133.5 45q8 2 34 7t49 10t52.5 15.5t47 26.5t17.5 35q0 36 -23.5 58.5t-62 33.5t-81.5 11q-74 0 -130 -27t-83 -70l-17 6q31 52 95.5 80t135.5 28q30 0 63.5 -6.5t60.5 -20.5t44 -37.5t17 -55.5q0 -20 -13.5 -40t-49.5 -36
t-94 -27t-59 -11q-123 -28 -161.5 -67.5t-38.5 -98.5l2 -30h425v-20z" />
    <glyph glyph-name="uni00B3" unicode="&#xb3;" horiz-adv-x="604" 
d="M96 594q33 43 87.5 65.5t113.5 22.5q47 0 93 -13.5t74.5 -41t28.5 -67.5q0 -24 -16 -45.5t-43.5 -34.5t-53.5 -18q60 -14 92 -46.5t32 -76.5q0 -38 -31.5 -71t-82 -47t-102.5 -14q-201 0 -229 138l22 -2q3 -23 17 -44.5t44 -38.5t71 -24.5t75 -7.5q61 0 103.5 13.5
t67.5 38.5t25 59q0 19 -10 39.5t-31 37.5t-52 26.5t-69 9.5h-56v20h56q65 0 108.5 26.5t43.5 61.5q0 15 -7.5 34t-30.5 35t-60 26t-79 10t-82 -12.5t-67 -34t-42 -42.5z" />
    <glyph glyph-name="acute" unicode="&#xb4;" horiz-adv-x="313" 
d="M161 898h41l-66 -168h-15z" />
    <glyph glyph-name="paragraph" unicode="&#xb6;" horiz-adv-x="532" 
d="M227 375q-40 0 -80 15t-65 51t-25 79q0 27 11 53t32 47t53 33t72 12h207v-20h-71v-894h-20v894h-70v-894h-20v624h-24z" />
    <glyph glyph-name="periodcentered" unicode="&#xb7;" horiz-adv-x="348" 
d="M175 250q-21 0 -32.5 11.5t-11.5 31.5q0 44 43 44q20 0 32 -12t12 -31q0 -22 -11.5 -33t-31.5 -11z" />
    <glyph glyph-name="cedilla" unicode="&#xb8;" horiz-adv-x="383" 
d="M84 -220q32 -14 68 -14q23 0 50.5 9t47 32t19.5 51q0 15 -9.5 32.5t-32.5 29t-50 11.5t-51 -10l22 85l19 -5l-14 -52l24 2q21 0 47.5 -8.5t45.5 -31.5t19 -53q0 -48 -40 -80t-97 -32q-36 0 -71 14z" />
    <glyph glyph-name="uni00B9" unicode="&#xb9;" horiz-adv-x="307" 
d="M169 232h-20v413h-72v20h92v-433z" />
    <glyph glyph-name="ordmasculine" unicode="&#xba;" horiz-adv-x="544" 
d="M273 245q-95 0 -154 58.5t-59 152.5q0 98 58 157t153 59t154 -58.5t59 -152.5q0 -98 -58 -157t-153 -59zM273 265q86 0 138.5 53.5t52.5 142.5q0 85 -53 138t-140 53q-86 0 -138.5 -53.5t-52.5 -142.5q0 -85 53 -138t140 -53z" />
    <glyph glyph-name="guillemotright" unicode="&#xbb;" horiz-adv-x="597" 
d="M103 91l-13 5l188 186l-188 184l13 5l209 -178v-25zM310 91l-13 5l188 186l-188 184l13 5l209 -178v-25z" />
    <glyph glyph-name="onequarter" unicode="&#xbc;" horiz-adv-x="958" 
d="M172 -3l385 672l18 -10l-385 -672zM191 232h-20v413h-72v20h92v-433zM779 157v301l-28 10l-355 -313l23 -17h340v-138h20v138h100v19h-100zM759 157h-332l332 291v-291z" />
    <glyph glyph-name="onehalf" unicode="&#xbd;" horiz-adv-x="1011" 
d="M172 -3l385 672l18 -10l-385 -672zM191 232h-20v413h-72v20h92v-433zM925 20h-425l-2 30q0 59 38.5 98.5t161.5 67.5q2 0 7 1.5t46 8.5t67 15.5t46 18.5t35 28t15 42q0 16 -7 37t-30 40t-62 31t-86 12q-71 0 -135.5 -28t-95.5 -80l17 -6q23 36 63.5 59t80.5 30.5t69 7.5
q43 0 81.5 -11t62 -33.5t23.5 -58.5q0 -22 -19.5 -37.5t-47 -25t-50.5 -14.5t-49 -10t-34 -7q-89 -20 -133.5 -45t-64 -62.5t-19.5 -85.5l2 -43h445v20z" />
    <glyph glyph-name="threequarters" unicode="&#xbe;" horiz-adv-x="1177" 
d="M116 594q33 43 87.5 65.5t113.5 22.5q47 0 93 -13.5t74.5 -41t28.5 -67.5q0 -24 -16 -45.5t-43.5 -34.5t-53.5 -18q60 -14 92 -46.5t32 -76.5q0 -38 -31.5 -71t-82 -47t-102.5 -14q-201 0 -229 138l22 -2q3 -23 17 -44.5t44 -38.5t71 -24.5t75 -7.5q61 0 103.5 13.5
t67.5 38.5t25 59q0 19 -10 39.5t-31 37.5t-52 26.5t-69 9.5h-56v20h56q65 0 108.5 26.5t43.5 61.5q0 15 -7.5 34t-30.5 35t-60 26t-79 10t-82 -12.5t-67 -34t-42 -42.5zM392 -3l385 672l18 -10l-385 -672zM1099 157v-19h-100v-138h-20v138h-340l-23 17l355 313l28 -10v-301
h100zM979 448l-332 -291h332v291z" />
    <glyph glyph-name="questiondown" unicode="&#xbf;" horiz-adv-x="678" 
d="M400 683q17 0 27 -10t10 -26q0 -13 -7.5 -25t-28.5 -12q-17 0 -27 10t-10 26q0 13 7.5 25t28.5 12zM660 91q-48 -67 -124 -91.5t-176 -24.5q-60 0 -120 12q-74 16 -117 47t-60 67.5t-17 78.5q0 38 15.5 69.5t52 55.5t127.5 50t115.5 45.5t30 36.5t5.5 30v57h20l1 -57
q0 -22 -9.5 -43t-36 -39.5t-98 -40t-99.5 -32.5t-52 -27.5t-38 -42.5t-14 -62q0 -47 22 -81.5t63.5 -57.5t96.5 -35q51 -11 112 -11q68 0 123 11t91.5 33.5t67.5 63.5z" />
    <glyph glyph-name="Agrave" unicode="&#xc0;" horiz-adv-x="805" 
d="M435 730h-15l-66 168h41zM732 0h20l-339 675h-21l-339 -675h20l137 274h385zM220 294l182 361h1l182 -361h-365z" />
    <glyph glyph-name="Aacute" unicode="&#xc1;" horiz-adv-x="805" 
d="M420 898h41l-66 -168h-15zM732 0h20l-339 675h-21l-339 -675h20l137 274h385zM220 294l182 361h1l182 -361h-365z" />
    <glyph glyph-name="Acircumflex" unicode="&#xc2;" horiz-adv-x="805" 
d="M575 730l-170 137l-169 -137h-26l175 159h40l176 -159h-26zM732 0h20l-339 675h-21l-339 -675h20l137 274h385zM220 294l182 361h1l182 -361h-365z" />
    <glyph glyph-name="Atilde" unicode="&#xc3;" horiz-adv-x="805" 
d="M590 841q-23 -82 -87 -82q-42 0 -106 35t-81.5 39.5t-27.5 4.5q-35 0 -49 -61l-20 4q19 78 70 78q11 0 30.5 -5t71.5 -33t74 -35.5t38 -7.5q48 0 67 67zM732 0h20l-339 675h-21l-339 -675h20l137 274h385zM220 294l182 361h1l182 -361h-365z" />
    <glyph glyph-name="Adieresis" unicode="&#xc4;" horiz-adv-x="805" 
d="M306 783q-13 0 -22 8.5t-9 21.5q0 16 9 23.5t21 7.5q13 0 22 -8.5t9 -21.5q0 -16 -9 -23.5t-21 -7.5zM506 783q-13 0 -22 8.5t-9 21.5q0 16 9 23.5t21 7.5q13 0 22 -8.5t9 -21.5q0 -16 -9 -23.5t-21 -7.5zM595 274h-385l-137 -274h-20l339 675h21l339 -675h-20zM585 294
l-182 361h-1l-182 -361h365z" />
    <glyph glyph-name="Aring" unicode="&#xc5;" horiz-adv-x="805" 
d="M396 709q-37 0 -65 17.5t-38.5 44t-10.5 49.5q0 52 31 84t81 32t81.5 -31t31.5 -80q0 -38 -17.5 -66.5t-44 -39t-49.5 -10.5zM396 729q41 0 66 26.5t25 69.5q0 41 -26 66t-67 25t-66.5 -26.5t-25.5 -69.5q0 -40 26.5 -65.5t67.5 -25.5zM595 274h-385l-137 -274h-20
l339 675h21l339 -675h-20zM585 294l-182 361h-1l-182 -361h365z" />
    <glyph glyph-name="AE" unicode="&#xc6;" horiz-adv-x="1246" 
d="M44 0l518 665h612v-20h-575v-295h488v-20h-488v-310h594v-20h-613v274h-298l-214 -274h-24zM580 645h-8l-274 -351h282v351z" />
    <glyph glyph-name="Ccedilla" unicode="&#xc7;" horiz-adv-x="899" 
d="M477 685q96 0 162.5 -29t106 -78t54.5 -118l-18 -8q-28 110 -106.5 161.5t-198.5 51.5q-73 0 -137.5 -21.5t-112.5 -63t-74.5 -103.5t-26.5 -138q0 -71 25.5 -134.5t72 -109.5t110.5 -71.5t137 -25.5q55 0 108 12.5t97 40t73.5 72.5t36.5 106l20 -2q-9 -81 -54 -136
t-117.5 -84t-163.5 -29l-33 1l-11 -43l24 2q21 0 47.5 -8.5t45.5 -31.5t19 -53q0 -48 -40 -80t-97 -32q-36 0 -71 14l3 20q32 -14 68 -14q23 0 50.5 9t47 32t19.5 51q0 15 -9.5 32.5t-32.5 29t-50 11.5t-51 -10l19 73q-68 8 -126 38t-100 78t-64.5 110t-22.5 132
q0 82 28 147.5t78.5 109.5t118.5 66.5t146 22.5z" />
    <glyph glyph-name="Egrave" unicode="&#xc8;" horiz-adv-x="831" 
d="M505 730h-15l-66 168h41zM778 20v-20h-612v665h593v-20h-574v-295h491v-20h-491v-310h593z" />
    <glyph glyph-name="Eacute" unicode="&#xc9;" horiz-adv-x="831" 
d="M492 898h41l-66 -168h-15zM778 20v-20h-612v665h593v-20h-574v-295h491v-20h-491v-310h593z" />
    <glyph glyph-name="Ecircumflex" unicode="&#xca;" horiz-adv-x="831" 
d="M635 731l-170 137l-169 -137h-26l175 159h40l176 -159h-26zM778 20v-20h-612v665h593v-20h-574v-295h491v-20h-491v-310h593z" />
    <glyph glyph-name="Edieresis" unicode="&#xcb;" horiz-adv-x="831" 
d="M366 783q-13 0 -22 8.5t-9 21.5q0 16 9 23.5t21 7.5q13 0 22 -8.5t9 -21.5q0 -16 -9 -23.5t-21 -7.5zM566 783q-13 0 -22 8.5t-9 21.5q0 16 9 23.5t21 7.5q13 0 22 -8.5t9 -21.5q0 -16 -9 -23.5t-21 -7.5zM778 20v-20h-612v665h593v-20h-574v-295h491v-20h-491v-310h593z
" />
    <glyph glyph-name="Igrave" unicode="&#xcc;" horiz-adv-x="355" 
d="M210 730h-15l-66 168h41zM189 0h-20v665h20v-665z" />
    <glyph glyph-name="Iacute" unicode="&#xcd;" horiz-adv-x="355" 
d="M201 898h41l-66 -168h-15zM186 0h-20v665h20v-665z" />
    <glyph glyph-name="Icircumflex" unicode="&#xce;" horiz-adv-x="352" 
d="M348 730l-170 137l-169 -137h-26l175 159h40l176 -159h-26zM186 0h-20v665h20v-665z" />
    <glyph glyph-name="Idieresis" unicode="&#xcf;" horiz-adv-x="352" 
d="M76 783q-13 0 -22 8.5t-9 21.5q0 16 9 23.5t21 7.5q13 0 22 -8.5t9 -21.5q0 -16 -9 -23.5t-21 -7.5zM276 783q-13 0 -22 8.5t-9 21.5q0 16 9 23.5t21 7.5q13 0 22 -8.5t9 -21.5q0 -16 -9 -23.5t-21 -7.5zM186 0h-20v665h20v-665z" />
    <glyph glyph-name="Eth" unicode="&#xd0;" horiz-adv-x="946" 
d="M175 0v336h-73v20h73v309h330q72 0 134 -22.5t106.5 -64.5t68.5 -100t24 -126q0 -74 -23.5 -139t-68 -112.5t-106.5 -74t-136 -26.5h-329zM195 645v-289h267v-20h-267v-316h309q69 0 128 25t100.5 69.5t63.5 106t22 131.5q0 63 -22.5 117.5t-64.5 94t-100 60.5t-126 21
h-310z" />
    <glyph glyph-name="Ntilde" unicode="&#xd1;" horiz-adv-x="995" 
d="M688 841q-23 -82 -87 -82q-42 0 -106 35t-81.5 39.5t-27.5 4.5q-35 0 -49 -61l-20 4q19 78 70 78q11 0 30.5 -5t71.5 -33t74 -35.5t38 -7.5q48 0 67 67zM187 637v-637h-21v665h22l621 -645v645h20v-665h-27z" />
    <glyph glyph-name="Ograve" unicode="&#xd2;" horiz-adv-x="929" 
d="M486 730h-15l-66 168h41zM466 -23q-78 0 -144 25.5t-113.5 72.5t-73 112.5t-25.5 142.5q0 80 25 147.5t72 114.5t112.5 72.5t143.5 25.5t144 -25.5t113.5 -72.5t73 -112.5t25.5 -142.5q0 -80 -25 -147.5t-72 -114.5t-112.5 -72.5t-143.5 -25.5zM466 -3q73 0 135 24
t106 68.5t68 108t24 139.5q0 73 -24 135t-69 106t-107.5 68t-135.5 24t-135 -24t-106 -68.5t-68 -108t-24 -139.5q0 -73 24 -135t69 -106t107.5 -68t135.5 -24z" />
    <glyph glyph-name="Oacute" unicode="&#xd3;" horiz-adv-x="929" 
d="M466 898h41l-66 -168h-15zM466 -23q-78 0 -144 25.5t-113.5 72.5t-73 112.5t-25.5 142.5q0 80 25 147.5t72 114.5t112.5 72.5t143.5 25.5t144 -25.5t113.5 -72.5t73 -112.5t25.5 -142.5q0 -80 -25 -147.5t-72 -114.5t-112.5 -72.5t-143.5 -25.5zM466 -3q73 0 135 24
t106 68.5t68 108t24 139.5q0 73 -24 135t-69 106t-107.5 68t-135.5 24t-135 -24t-106 -68.5t-68 -108t-24 -139.5q0 -73 24 -135t69 -106t107.5 -68t135.5 -24z" />
    <glyph glyph-name="Ocircumflex" unicode="&#xd4;" horiz-adv-x="929" 
d="M628 730l-170 137l-169 -137h-26l175 159h40l176 -159h-26zM466 -23q-78 0 -144 25.5t-113.5 72.5t-73 112.5t-25.5 142.5q0 80 25 147.5t72 114.5t112.5 72.5t143.5 25.5t144 -25.5t113.5 -72.5t73 -112.5t25.5 -142.5q0 -80 -25 -147.5t-72 -114.5t-112.5 -72.5
t-143.5 -25.5zM466 -3q73 0 135 24t106 68.5t68 108t24 139.5q0 73 -24 135t-69 106t-107.5 68t-135.5 24t-135 -24t-106 -68.5t-68 -108t-24 -139.5q0 -73 24 -135t69 -106t107.5 -68t135.5 -24z" />
    <glyph glyph-name="Otilde" unicode="&#xd5;" horiz-adv-x="929" 
d="M641 841q-23 -82 -87 -82q-42 0 -106 35t-81.5 39.5t-27.5 4.5q-35 0 -49 -61l-20 4q19 78 70 78q11 0 30.5 -5t71.5 -33t74 -35.5t38 -7.5q48 0 67 67zM466 -23q-78 0 -144 25.5t-113.5 72.5t-73 112.5t-25.5 142.5q0 80 25 147.5t72 114.5t112.5 72.5t143.5 25.5
t144 -25.5t113.5 -72.5t73 -112.5t25.5 -142.5q0 -80 -25 -147.5t-72 -114.5t-112.5 -72.5t-143.5 -25.5zM466 -3q73 0 135 24t106 68.5t68 108t24 139.5q0 73 -24 135t-69 106t-107.5 68t-135.5 24t-135 -24t-106 -68.5t-68 -108t-24 -139.5q0 -73 24 -135t69 -106
t107.5 -68t135.5 -24z" />
    <glyph glyph-name="Odieresis" unicode="&#xd6;" horiz-adv-x="929" 
d="M357 783q-13 0 -22 8.5t-9 21.5q0 16 9 23.5t21 7.5q13 0 22 -8.5t9 -21.5q0 -16 -9 -23.5t-21 -7.5zM557 783q-13 0 -22 8.5t-9 21.5q0 16 9 23.5t21 7.5q13 0 22 -8.5t9 -21.5q0 -16 -9 -23.5t-21 -7.5zM466 -23q-78 0 -144 25.5t-113.5 72.5t-73 112.5t-25.5 142.5
q0 80 25 147.5t72 114.5t112.5 72.5t143.5 25.5t144 -25.5t113.5 -72.5t73 -112.5t25.5 -142.5q0 -80 -25 -147.5t-72 -114.5t-112.5 -72.5t-143.5 -25.5zM466 -3q73 0 135 24t106 68.5t68 108t24 139.5q0 73 -24 135t-69 106t-107.5 68t-135.5 24t-135 -24t-106 -68.5
t-68 -108t-24 -139.5q0 -73 24 -135t69 -106t107.5 -68t135.5 -24z" />
    <glyph glyph-name="multiply" unicode="&#xd7;" horiz-adv-x="512" 
d="M444 496l-174 -174l174 -174l-14 -14l-174 174l-174 -174l-14 14l174 174l-174 174l14 14l174 -174l174 174z" />
    <glyph glyph-name="Oslash" unicode="&#xd8;" horiz-adv-x="932" 
d="M219 1l29 41q-65 47 -100.5 121t-35.5 167q0 80 25 147.5t72 114.5t112.5 72.5t143.5 25.5q112 0 196 -50l23 33l16 -12l-22 -32q67 -46 105 -122t38 -170q0 -80 -25 -147.5t-72 -114.5t-112.5 -72.5t-143.5 -25.5q-115 0 -204 54l-29 -42zM132 330q0 -41 11 -92
t41.5 -99t74.5 -80l390 564q-80 47 -184 47q-73 0 -135 -24t-106 -68.5t-68 -108t-24 -139.5zM468 -3q73 0 135 24t106 68.5t68 108t24 139.5q0 88 -36 160t-99 115l-390 -564q80 -51 192 -51z" />
    <glyph glyph-name="Ugrave" unicode="&#xd9;" horiz-adv-x="938" 
d="M499 730h-15l-66 168h41zM146 246q0 -59 22 -109t64 -86t102.5 -55.5t134.5 -19.5t134.5 19.5t102.5 55.5t64 86t22 109v419h-20v-419q0 -55 -21 -101.5t-60.5 -79.5t-96 -51t-125.5 -18t-125.5 18t-96 51t-60.5 79.5t-21 101.5v419h-20v-419z" />
    <glyph glyph-name="Uacute" unicode="&#xda;" horiz-adv-x="938" 
d="M498 898h41l-66 -168h-15zM146 246q0 -59 22 -109t64 -86t102.5 -55.5t134.5 -19.5t134.5 19.5t102.5 55.5t64 86t22 109v419h-20v-419q0 -55 -21 -101.5t-60.5 -79.5t-96 -51t-125.5 -18t-125.5 18t-96 51t-60.5 79.5t-21 101.5v419h-20v-419z" />
    <glyph glyph-name="Ucircumflex" unicode="&#xdb;" horiz-adv-x="938" 
d="M638 730l-170 137l-169 -137h-26l175 159h40l176 -159h-26zM146 246q0 -59 22 -109t64 -86t102.5 -55.5t134.5 -19.5t134.5 19.5t102.5 55.5t64 86t22 109v419h-20v-419q0 -55 -21 -101.5t-60.5 -79.5t-96 -51t-125.5 -18t-125.5 18t-96 51t-60.5 79.5t-21 101.5v419h-20
v-419z" />
    <glyph glyph-name="Udieresis" unicode="&#xdc;" horiz-adv-x="938" 
d="M383 783q-13 0 -22 8.5t-9 21.5q0 16 9 23.5t21 7.5q13 0 22 -8.5t9 -21.5q0 -16 -9 -23.5t-21 -7.5zM583 783q-13 0 -22 8.5t-9 21.5q0 16 9 23.5t21 7.5q13 0 22 -8.5t9 -21.5q0 -16 -9 -23.5t-21 -7.5zM146 665h20v-419q0 -55 21 -101.5t60.5 -79.5t96 -51t125.5 -18
t125.5 18t96 51t60.5 79.5t21 101.5v419h20v-419q0 -59 -22 -109t-64 -86t-102.5 -55.5t-134.5 -19.5t-134.5 19.5t-102.5 55.5t-64 86t-22 109v419z" />
    <glyph glyph-name="Yacute" unicode="&#xdd;" horiz-adv-x="746" 
d="M388 898h41l-66 -168h-15zM383 0h-20v213l-317 452h26l301 -432l301 432h26l-317 -452v-213z" />
    <glyph glyph-name="Thorn" unicode="&#xde;" horiz-adv-x="918" 
d="M186 665v-119h380q271 0 271 -190q0 -35 -16 -72t-46.5 -67t-74.5 -48.5t-97 -18.5h-417v-150h-20v665h20zM186 526v-356h417q48 0 88.5 16.5t68.5 44t42.5 60.5t14.5 65q0 170 -251 170h-380z" />
    <glyph glyph-name="germandbls" unicode="&#xdf;" horiz-adv-x="709" 
d="M561 549q0 -48 -26 -83.5t-71.5 -58t-104.5 -34.5q141 -5 208 -55.5t67 -138.5q0 -35 -14 -70t-45 -62t-76 -44t-98 -17q-47 0 -91.5 17t-73.5 49v31q19 -27 49.5 -45.5t61.5 -25t54 -6.5q59 0 108 22.5t77 60.5t28 90q0 54 -28 94t-92.5 61t-184.5 21l-51 -1v19
q89 7 154.5 30t97.5 60t32 85q0 51 -48 87.5t-121 36.5q-40 0 -79 -13.5t-69.5 -39.5t-48.5 -64.5t-18 -84.5v-470h-20v470q0 38 13 77.5t47.5 75t82.5 52.5t92 17q53 0 94 -17.5t67.5 -50t26.5 -75.5z" />
    <glyph glyph-name="agrave" unicode="&#xe0;" horiz-adv-x="751" 
d="M406 581h-15l-66 168h41zM594 109q-32 -61 -93.5 -95.5t-141.5 -34.5q-120 0 -194 73.5t-74 192.5q0 61 19 111.5t54 86t84 54.5t108 19q38 0 84.5 -11.5t88 -43.5t65.5 -77v116h20v-500h-20v109zM359 -1q89 0 150.5 44.5t84.5 123.5v163q-22 77 -85.5 121.5t-152.5 44.5
q-54 0 -99.5 -17.5t-78 -50.5t-50 -80t-17.5 -103q0 -54 17.5 -100t50.5 -78.5t79.5 -50t100.5 -17.5z" />
    <glyph glyph-name="aacute" unicode="&#xe1;" horiz-adv-x="751" 
d="M399 748h41l-66 -168h-15zM594 109q-32 -61 -93.5 -95.5t-141.5 -34.5q-120 0 -194 73.5t-74 192.5q0 61 19 111.5t54 86t84 54.5t108 19q38 0 84.5 -11.5t88 -43.5t65.5 -77v116h20v-500h-20v109zM359 -1q89 0 150.5 44.5t84.5 123.5v163q-22 77 -85.5 121.5
t-152.5 44.5q-54 0 -99.5 -17.5t-78 -50.5t-50 -80t-17.5 -103q0 -54 17.5 -100t50.5 -78.5t79.5 -50t100.5 -17.5z" />
    <glyph glyph-name="acircumflex" unicode="&#xe2;" horiz-adv-x="751" 
d="M549 583l-170 137l-169 -137h-26l175 159h40l176 -159h-26zM594 109q-32 -61 -93.5 -95.5t-141.5 -34.5q-120 0 -194 73.5t-74 192.5q0 61 19 111.5t54 86t84 54.5t108 19q38 0 84.5 -11.5t88 -43.5t65.5 -77v116h20v-500h-20v109zM359 -1q89 0 150.5 44.5t84.5 123.5
v163q-22 77 -85.5 121.5t-152.5 44.5q-54 0 -99.5 -17.5t-78 -50.5t-50 -80t-17.5 -103q0 -54 17.5 -100t50.5 -78.5t79.5 -50t100.5 -17.5z" />
    <glyph glyph-name="atilde" unicode="&#xe3;" horiz-adv-x="751" 
d="M538 690q-23 -82 -87 -82q-42 0 -106 35t-81.5 39.5t-27.5 4.5q-35 0 -49 -61l-20 4q19 78 70 78q11 0 30.5 -5t71.5 -33t74 -35.5t38 -7.5q48 0 67 67zM594 109q-32 -61 -93.5 -95.5t-141.5 -34.5q-120 0 -194 73.5t-74 192.5q0 61 19 111.5t54 86t84 54.5t108 19
q38 0 84.5 -11.5t88 -43.5t65.5 -77v116h20v-500h-20v109zM359 -1q89 0 150.5 44.5t84.5 123.5v163q-22 77 -85.5 121.5t-152.5 44.5q-54 0 -99.5 -17.5t-78 -50.5t-50 -80t-17.5 -103q0 -54 17.5 -100t50.5 -78.5t79.5 -50t100.5 -17.5z" />
    <glyph glyph-name="adieresis" unicode="&#xe4;" horiz-adv-x="751" 
d="M259 637q-13 0 -22 8.5t-9 21.5q0 16 9 23.5t21 7.5q13 0 22 -8.5t9 -21.5q0 -16 -9 -23.5t-21 -7.5zM459 637q-13 0 -22 8.5t-9 21.5q0 16 9 23.5t21 7.5q13 0 22 -8.5t9 -21.5q0 -16 -9 -23.5t-21 -7.5zM594 109q-32 -61 -93.5 -95.5t-141.5 -34.5q-120 0 -194 73.5
t-74 192.5q0 61 19 111.5t54 86t84 54.5t108 19q38 0 84.5 -11.5t88 -43.5t65.5 -77v116h20v-500h-20v109zM359 -1q89 0 150.5 44.5t84.5 123.5v163q-22 77 -85.5 121.5t-152.5 44.5q-54 0 -99.5 -17.5t-78 -50.5t-50 -80t-17.5 -103q0 -54 17.5 -100t50.5 -78.5t79.5 -50
t100.5 -17.5z" />
    <glyph glyph-name="aring" unicode="&#xe5;" horiz-adv-x="751" 
d="M367 556q-37 0 -65 17.5t-38.5 44t-10.5 49.5q0 52 31 84t81 32t81.5 -31t31.5 -80q0 -38 -17.5 -66.5t-44 -39t-49.5 -10.5zM367 576q41 0 66 26.5t25 69.5q0 41 -26 66t-67 25t-66.5 -26.5t-25.5 -69.5q0 -40 26.5 -65.5t67.5 -25.5zM594 109q-32 -61 -93.5 -95.5
t-141.5 -34.5q-120 0 -194 73.5t-74 192.5q0 61 19 111.5t54 86t84 54.5t108 19q38 0 84.5 -11.5t88 -43.5t65.5 -77v116h20v-500h-20v109zM359 -1q89 0 150.5 44.5t84.5 123.5v163q-22 77 -85.5 121.5t-152.5 44.5q-54 0 -99.5 -17.5t-78 -50.5t-50 -80t-17.5 -103
q0 -54 17.5 -100t50.5 -78.5t79.5 -50t100.5 -17.5z" />
    <glyph glyph-name="ae" unicode="&#xe6;" horiz-adv-x="1213" 
d="M863 516q56 0 104 -17t83.5 -49t56 -77t24.5 -99l-8 -42l-505 4q3 -107 71 -172t177 -65q77 0 134.5 34t86.5 96l18 -10q-30 -66 -93.5 -103t-145.5 -37q-90 0 -155.5 41.5t-93.5 115.5v-136h-21v109q-32 -61 -93.5 -95.5t-141.5 -34.5q-120 0 -194 73.5t-74 192.5
q0 61 19 111.5t54 86t84 54.5t108 19q38 0 84.5 -11.5t88 -43.5t65.5 -77v116h21v-143q28 75 92.5 117t153.5 42zM596 167v163q-22 77 -85.5 121.5t-152.5 44.5q-54 0 -99.5 -17.5t-78 -50.5t-50 -80t-17.5 -103q0 -54 17.5 -100t50.5 -78.5t79.5 -50t100.5 -17.5
q89 0 150.5 44.5t84.5 123.5zM618 256l489 -4l4 23q-4 99 -73 160t-175 61q-67 0 -119.5 -26t-81 -69t-36 -81t-8.5 -64z" />
    <glyph glyph-name="ccedilla" unicode="&#xe7;" horiz-adv-x="668" 
d="M357 516q63 0 112 -20t82 -54t43 -73l-16 -7q-18 55 -77 94.5t-144 39.5q-54 0 -99.5 -17.5t-78 -50.5t-50 -80t-17.5 -103q0 -54 17.5 -100t50.5 -78.5t79.5 -50t100.5 -17.5q57 0 105.5 20t76 51.5t40.5 60.5l19 -8q-30 -68 -93 -106t-148 -38l-33 2l-8 -32l24 2
q21 0 47.5 -8.5t45.5 -31.5t19 -53q0 -48 -40 -80t-97 -32q-36 0 -71 14l3 20q32 -14 68 -14q23 0 50.5 9t47 32t19.5 51q0 15 -9.5 32.5t-32.5 29t-50 11.5t-51 -10l16 62q-99 15 -157.5 85.5t-58.5 176.5q0 61 19 111.5t54 86t84 54.5t108 19z" />
    <glyph glyph-name="egrave" unicode="&#xe8;" horiz-adv-x="705" 
d="M409 580h-15l-66 168h41zM356 516q56 0 104 -17t83.5 -49t56 -77t24.5 -99l-8 -42l-505 4q3 -107 71 -172t177 -65q77 0 134.5 34t86.5 96l18 -10q-30 -66 -93.5 -103t-145.5 -37q-120 0 -194 73.5t-74 192.5q0 61 19 111.5t54 86t84 54.5t108 19zM111 256l489 -4l4 23
q-4 99 -73 160t-175 61q-67 0 -119.5 -26t-81 -69t-36 -81t-8.5 -64z" />
    <glyph glyph-name="eacute" unicode="&#xe9;" horiz-adv-x="705" 
d="M437 747l-66 -168h-15l40 168h41zM356 516q56 0 104 -17t83.5 -49t56 -77t24.5 -99l-8 -42l-505 4q3 -107 71 -172t177 -65q77 0 134.5 34t86.5 96l18 -10q-30 -66 -93.5 -103t-145.5 -37q-120 0 -194 73.5t-74 192.5q0 61 19 111.5t54 86t84 54.5t108 19zM111 256
l489 -4l4 23q-4 99 -73 160t-175 61q-67 0 -119.5 -26t-81 -69t-36 -81t-8.5 -64z" />
    <glyph glyph-name="ecircumflex" unicode="&#xea;" horiz-adv-x="705" 
d="M373 716l-169 -137h-26l175 159h40l176 -159h-26zM356 516q56 0 104 -17t83.5 -49t56 -77t24.5 -99l-8 -42l-505 4q3 -107 71 -172t177 -65q77 0 134.5 34t86.5 96l18 -10q-30 -66 -93.5 -103t-145.5 -37q-120 0 -194 73.5t-74 192.5q0 61 19 111.5t54 86t84 54.5t108 19
zM111 256l489 -4l4 23q-4 99 -73 160t-175 61q-67 0 -119.5 -26t-81 -69t-36 -81t-8.5 -64z" />
    <glyph glyph-name="edieresis" unicode="&#xeb;" horiz-adv-x="705" 
d="M260 632q-13 0 -22 8.5t-9 21.5q0 16 9 23.5t21 7.5q13 0 22 -8.5t9 -21.5q0 -16 -9 -23.5t-21 -7.5zM460 632q-13 0 -22 8.5t-9 21.5q0 16 9 23.5t21 7.5q13 0 22 -8.5t9 -21.5q0 -16 -9 -23.5t-21 -7.5zM356 516q56 0 104 -17t83.5 -49t56 -77t24.5 -99l-8 -42l-505 4
q3 -107 71 -172t177 -65q77 0 134.5 34t86.5 96l18 -10q-30 -66 -93.5 -103t-145.5 -37q-120 0 -194 73.5t-74 192.5q0 61 19 111.5t54 86t84 54.5t108 19zM111 256l489 -4l4 23q-4 99 -73 160t-175 61q-67 0 -119.5 -26t-81 -69t-36 -81t-8.5 -64z" />
    <glyph glyph-name="igrave" unicode="&#xec;" horiz-adv-x="301" 
d="M176 581h-15l-66 168h41zM161 0h-20v500h20v-500z" />
    <glyph glyph-name="iacute" unicode="&#xed;" horiz-adv-x="298" 
d="M165 747h41l-66 -168h-15zM158 0h-20v500h20v-500z" />
    <glyph glyph-name="icircumflex" unicode="&#xee;" horiz-adv-x="314" 
d="M326 581l-170 137l-169 -137h-26l175 159h40l176 -159h-26zM167 0h-20v500h20v-500z" />
    <glyph glyph-name="idieresis" unicode="&#xef;" horiz-adv-x="296" 
d="M43 635q-13 0 -22 8.5t-9 21.5q0 16 9 23.5t21 7.5q13 0 22 -8.5t9 -21.5q0 -16 -9 -23.5t-21 -7.5zM243 635q-13 0 -22 8.5t-9 21.5q0 16 9 23.5t21 7.5q13 0 22 -8.5t9 -21.5q0 -16 -9 -23.5t-21 -7.5zM158 0h-20v500h20v-500z" />
    <glyph glyph-name="eth" unicode="&#xf0;" horiz-adv-x="724" 
d="M234 567l87 97q-52 15 -110 15l18 20q55 -3 107 -18l55 61l14 -14l-48 -53q85 -30 144.5 -86.5t90.5 -127.5t31 -155q0 -59 -16 -117.5t-48.5 -105.5t-84 -75t-117.5 -28q-120 0 -193.5 73t-73.5 192q0 61 19 111.5t54 86t84 54.5t108 19q87 0 149 -38.5t93 -102.5
q-19 103 -88.5 177t-166.5 106l-90 -99zM357 0q53 0 99 23.5t78.5 63.5t50 91t17.5 103q0 45 -19 85t-53.5 69t-79.5 45t-95 16q-54 0 -99.5 -17.5t-78 -50.5t-50 -80t-17.5 -103q0 -54 17.5 -99.5t50.5 -78t79 -50t100 -17.5z" />
    <glyph glyph-name="ntilde" unicode="&#xf1;" 
d="M593 689q-23 -82 -87 -82q-42 0 -106 35t-81.5 39.5t-27.5 4.5q-35 0 -49 -61l-20 4q19 78 70 78q11 0 30.5 -5t71.5 -33t74 -35.5t38 -7.5q48 0 67 67zM158 358q47 76 115.5 114.5t164.5 38.5q40 0 78.5 -14t68 -39.5t46.5 -61.5t17 -78v-318h-20v318q0 28 -10.5 58
t-35 55.5t-62 42.5t-82.5 17q-37 0 -86.5 -11t-101 -48t-92.5 -104v-328h-20v500h20v-142z" />
    <glyph glyph-name="ograve" unicode="&#xf2;" horiz-adv-x="716" 
d="M411 582h-15l-66 168h41zM359 -21q-120 0 -194 73.5t-74 192.5q0 61 19 111.5t54 86t84 54.5t108 19q120 0 194.5 -73.5t74.5 -192.5q0 -123 -73 -197t-193 -74zM359 -1q54 0 100 17.5t78.5 50.5t50 80t17.5 103q0 110 -69 178t-180 68q-54 0 -99.5 -17.5t-78 -50.5
t-50 -80t-17.5 -103q0 -54 17.5 -100t50.5 -78.5t79.5 -50t100.5 -17.5z" />
    <glyph glyph-name="oacute" unicode="&#xf3;" horiz-adv-x="716" 
d="M372 748h41l-66 -168h-15zM359 -21q-120 0 -194 73.5t-74 192.5q0 61 19 111.5t54 86t84 54.5t108 19q120 0 194.5 -73.5t74.5 -192.5q0 -123 -73 -197t-193 -74zM359 -1q54 0 100 17.5t78.5 50.5t50 80t17.5 103q0 110 -69 178t-180 68q-54 0 -99.5 -17.5t-78 -50.5
t-50 -80t-17.5 -103q0 -54 17.5 -100t50.5 -78.5t79.5 -50t100.5 -17.5z" />
    <glyph glyph-name="ocircumflex" unicode="&#xf4;" horiz-adv-x="716" 
d="M528 580l-170 137l-169 -137h-26l175 159h40l176 -159h-26zM359 -21q-120 0 -194 73.5t-74 192.5q0 61 19 111.5t54 86t84 54.5t108 19q120 0 194.5 -73.5t74.5 -192.5q0 -123 -73 -197t-193 -74zM359 -1q54 0 100 17.5t78.5 50.5t50 80t17.5 103q0 110 -69 178t-180 68
q-54 0 -99.5 -17.5t-78 -50.5t-50 -80t-17.5 -103q0 -54 17.5 -100t50.5 -78.5t79.5 -50t100.5 -17.5z" />
    <glyph glyph-name="otilde" unicode="&#xf5;" horiz-adv-x="716" 
d="M553 690q-23 -82 -87 -82q-42 0 -106 35t-81.5 39.5t-27.5 4.5q-35 0 -49 -61l-20 4q19 78 70 78q11 0 30.5 -5t71.5 -33t74 -35.5t38 -7.5q48 0 67 67zM359 -21q-120 0 -194 73.5t-74 192.5q0 61 19 111.5t54 86t84 54.5t108 19q120 0 194.5 -73.5t74.5 -192.5
q0 -123 -73 -197t-193 -74zM359 -1q54 0 100 17.5t78.5 50.5t50 80t17.5 103q0 110 -69 178t-180 68q-54 0 -99.5 -17.5t-78 -50.5t-50 -80t-17.5 -103q0 -54 17.5 -100t50.5 -78.5t79.5 -50t100.5 -17.5z" />
    <glyph glyph-name="odieresis" unicode="&#xf6;" horiz-adv-x="716" 
d="M258 639q-13 0 -22 8.5t-9 21.5q0 16 9 23.5t21 7.5q13 0 22 -8.5t9 -21.5q0 -16 -9 -23.5t-21 -7.5zM458 639q-13 0 -22 8.5t-9 21.5q0 16 9 23.5t21 7.5q13 0 22 -8.5t9 -21.5q0 -16 -9 -23.5t-21 -7.5zM359 -21q-120 0 -194 73.5t-74 192.5q0 61 19 111.5t54 86
t84 54.5t108 19q120 0 194.5 -73.5t74.5 -192.5q0 -123 -73 -197t-193 -74zM359 -1q54 0 100 17.5t78.5 50.5t50 80t17.5 103q0 110 -69 178t-180 68q-54 0 -99.5 -17.5t-78 -50.5t-50 -80t-17.5 -103q0 -54 17.5 -100t50.5 -78.5t79.5 -50t100.5 -17.5z" />
    <glyph glyph-name="divide" unicode="&#xf7;" horiz-adv-x="563" 
d="M281 482q-21 0 -32.5 11.5t-11.5 31.5q0 44 43 44q20 0 32 -12t12 -31q0 -22 -11.5 -33t-31.5 -11zM26 332h511v-20h-511v20zM281 73q-21 0 -32.5 11.5t-11.5 31.5q0 44 43 44q20 0 32 -12t12 -31q0 -22 -11.5 -33t-31.5 -11z" />
    <glyph glyph-name="oslash" unicode="&#xf8;" horiz-adv-x="723" 
d="M147 -48l51 74q-49 34 -76.5 91t-27.5 128q0 61 19 111.5t54 86t84 54.5t108 19q86 0 151 -40l51 73l16 -12l-50 -72q48 -35 74.5 -90t26.5 -125q0 -123 -73 -197t-193 -74q-43 0 -81 10t-66 26l-52 -75zM114 245q0 -65 25.5 -118t70.5 -84l289 417q-28 16 -65.5 26
t-74.5 10q-54 0 -99.5 -17.5t-78 -50.5t-50 -80t-17.5 -103zM362 -1q54 0 100 17.5t78.5 50.5t50 80t17.5 103q0 30 -8 67t-30.5 72t-54.5 59l-288 -416q26 -15 62.5 -24t72.5 -9z" />
    <glyph glyph-name="ugrave" unicode="&#xf9;" 
d="M427 579h-15l-66 168h41zM612 142q-48 -76 -116 -114.5t-164 -38.5q-40 0 -78.5 14t-68 39.5t-46.5 61.5t-17 78v318h20v-318q0 -28 10.5 -58t35 -55.5t62 -42.5t82.5 -17q37 0 86.5 11t101 48t92.5 104v328h20v-500h-20v142z" />
    <glyph glyph-name="uacute" unicode="&#xfa;" 
d="M429 748h41l-66 -168h-15zM612 142q-48 -76 -116 -114.5t-164 -38.5q-40 0 -78.5 14t-68 39.5t-46.5 61.5t-17 78v318h20v-318q0 -28 10.5 -58t35 -55.5t62 -42.5t82.5 -17q37 0 86.5 11t101 48t92.5 104v328h20v-500h-20v142z" />
    <glyph glyph-name="ucircumflex" unicode="&#xfb;" 
d="M554 579l-170 137l-169 -137h-26l175 159h40l176 -159h-26zM612 142q-48 -76 -116 -114.5t-164 -38.5q-40 0 -78.5 14t-68 39.5t-46.5 61.5t-17 78v318h20v-318q0 -28 10.5 -58t35 -55.5t62 -42.5t82.5 -17q37 0 86.5 11t101 48t92.5 104v328h20v-500h-20v142z" />
    <glyph glyph-name="udieresis" unicode="&#xfc;" 
d="M283 635q-13 0 -22 8.5t-9 21.5q0 16 9 23.5t21 7.5q13 0 22 -8.5t9 -21.5q0 -16 -9 -23.5t-21 -7.5zM483 635q-13 0 -22 8.5t-9 21.5q0 16 9 23.5t21 7.5q13 0 22 -8.5t9 -21.5q0 -16 -9 -23.5t-21 -7.5zM612 142q-48 -76 -116 -114.5t-164 -38.5q-40 0 -78.5 14
t-68 39.5t-46.5 61.5t-17 78v318h20v-318q0 -28 10.5 -58t35 -55.5t62 -42.5t82.5 -17q37 0 86.5 11t101 48t92.5 104v328h20v-500h-20v142z" />
    <glyph glyph-name="yacute" unicode="&#xfd;" horiz-adv-x="588" 
d="M330 749h41l-66 -168h-15zM552 500l-349 -710h-21l104 212l-251 498h23l238 -476h1l232 476h23z" />
    <glyph glyph-name="thorn" unicode="&#xfe;" horiz-adv-x="752" 
d="M158 386q15 29 45 60t80 50.5t109 19.5q120 0 194.5 -73.5t74.5 -192.5q0 -123 -73 -197t-193 -74q-38 0 -84.5 11.5t-87.5 43t-65 76.5v-321h-20v876h21zM392 496q-88 0 -149.5 -43.5t-84.5 -120.5v-171q23 -75 86 -118.5t151 -43.5q54 0 100 17.5t78.5 50.5t50 80
t17.5 103q0 110 -69 178t-180 68z" />
    <glyph glyph-name="ydieresis" unicode="&#xff;" horiz-adv-x="588" 
d="M194 634q-13 0 -22 8.5t-9 21.5q0 16 9 23.5t21 7.5q13 0 22 -8.5t9 -21.5q0 -16 -9 -23.5t-21 -7.5zM394 634q-13 0 -22 8.5t-9 21.5q0 16 9 23.5t21 7.5q13 0 22 -8.5t9 -21.5q0 -16 -9 -23.5t-21 -7.5zM552 500l-349 -710h-21l104 212l-251 498h23l238 -476h1l232 476
h23z" />
    <glyph glyph-name="Amacron" unicode="&#x100;" horiz-adv-x="805" 
d="M592 782v-20h-380v20h380zM732 0h20l-339 675h-21l-339 -675h20l137 274h385zM220 294l182 361h1l182 -361h-365z" />
    <glyph glyph-name="amacron" unicode="&#x101;" horiz-adv-x="751" 
d="M556 674v-20h-380v20h380zM594 109q-32 -61 -93.5 -95.5t-141.5 -34.5q-120 0 -194 73.5t-74 192.5q0 61 19 111.5t54 86t84 54.5t108 19q38 0 84.5 -11.5t88 -43.5t65.5 -77v116h20v-500h-20v109zM359 -1q89 0 150.5 44.5t84.5 123.5v163q-22 77 -85.5 121.5
t-152.5 44.5q-54 0 -99.5 -17.5t-78 -50.5t-50 -80t-17.5 -103q0 -54 17.5 -100t50.5 -78.5t79.5 -50t100.5 -17.5z" />
    <glyph glyph-name="Abreve" unicode="&#x102;" horiz-adv-x="805" 
d="M523 871q0 -40 -20.5 -78t-49 -53.5t-55.5 -15.5t-55.5 15.5t-49 53.5t-20.5 78h20q0 -48 30 -87.5t75 -39.5t75 39.5t30 87.5h20zM732 0h20l-339 675h-21l-339 -675h20l137 274h385zM220 294l182 361h1l182 -361h-365z" />
    <glyph glyph-name="abreve" unicode="&#x103;" horiz-adv-x="751" 
d="M489 728q0 -40 -20.5 -78t-49 -53.5t-55.5 -15.5t-55.5 15.5t-49 53.5t-20.5 78h20q0 -48 30 -87.5t75 -39.5t75 39.5t30 87.5h20zM594 109q-32 -61 -93.5 -95.5t-141.5 -34.5q-120 0 -194 73.5t-74 192.5q0 61 19 111.5t54 86t84 54.5t108 19q38 0 84.5 -11.5t88 -43.5
t65.5 -77v116h20v-500h-20v109zM359 -1q89 0 150.5 44.5t84.5 123.5v163q-22 77 -85.5 121.5t-152.5 44.5q-54 0 -99.5 -17.5t-78 -50.5t-50 -80t-17.5 -103q0 -54 17.5 -100t50.5 -78.5t79.5 -50t100.5 -17.5z" />
    <glyph glyph-name="Aogonek" unicode="&#x104;" horiz-adv-x="805" 
d="M595 274h-385l-137 -274h-20l339 675h21l339 -675h-20q-33 -1 -63 -10t-47.5 -29.5t-17.5 -43.5q0 -15 9.5 -34.5t34.5 -35t57 -15.5q34 0 65 15l8 -18q-37 -17 -73 -17q-38 0 -68 19t-41.5 43.5t-11.5 42.5q0 17 11 39.5t44 39t86 18.5zM585 294l-182 361h-1l-182 -361
h365z" />
    <glyph glyph-name="aogonek" unicode="&#x105;" horiz-adv-x="752" 
d="M614 0q-44 0 -73 -10.5t-46 -30t-17 -42.5q0 -15 9.5 -34.5t34.5 -35t57 -15.5q34 0 65 15l8 -18q-37 -17 -73 -17q-38 0 -68 19t-41.5 43.5t-11.5 42.5q0 38 34.5 65.5t101.5 30.5v96q-32 -61 -93.5 -95.5t-141.5 -34.5q-120 0 -194 73.5t-74 192.5q0 61 19 111.5t54 86
t84 54.5t108 19q38 0 84.5 -11.5t88 -43.5t65.5 -77v116h20v-500zM359 -1q89 0 150.5 44.5t84.5 123.5v163q-22 77 -85.5 121.5t-152.5 44.5q-54 0 -99.5 -17.5t-78 -50.5t-50 -80t-17.5 -103q0 -54 17.5 -100t50.5 -78.5t79.5 -50t100.5 -17.5z" />
    <glyph glyph-name="Cacute" unicode="&#x106;" horiz-adv-x="902" 
d="M505 899h41l-66 -168h-15zM478 665q120 0 198.5 -51.5t106.5 -161.5l18 8q-15 69 -54.5 118t-106 78t-162.5 29q-78 0 -146 -22.5t-118.5 -66.5t-78.5 -109.5t-28 -147.5q0 -76 27 -142.5t76 -115.5t117 -76t145 -27q91 0 163.5 29t117.5 84t54 136l-20 2
q-5 -45 -26.5 -88.5t-62.5 -75t-98.5 -49.5t-127.5 -18q-73 0 -137 25.5t-110.5 71.5t-72 109.5t-25.5 134.5q0 76 26.5 138t74.5 103.5t112.5 63t137.5 21.5z" />
    <glyph glyph-name="cacute" unicode="&#x107;" horiz-adv-x="665" 
d="M378 744h41l-66 -168h-15zM577 362q-18 55 -77 94.5t-144 39.5q-54 0 -99.5 -17.5t-78 -50.5t-50 -80t-17.5 -103q0 -54 17.5 -100t50.5 -78.5t79.5 -50t100.5 -17.5q57 0 105.5 20t76 51.5t40.5 60.5l19 -8q-30 -68 -93 -106t-148 -38q-120 0 -194 73.5t-74 192.5
q0 61 19 111.5t54 86t84 54.5t108 19q63 0 112 -20t82 -54t43 -73z" />
    <glyph glyph-name="Ccircumflex" unicode="&#x108;" horiz-adv-x="902" 
d="M640 726l-170 137l-169 -137h-26l175 159h40l176 -159h-26zM478 665q120 0 198.5 -51.5t106.5 -161.5l18 8q-15 69 -54.5 118t-106 78t-162.5 29q-78 0 -146 -22.5t-118.5 -66.5t-78.5 -109.5t-28 -147.5q0 -76 27 -142.5t76 -115.5t117 -76t145 -27q91 0 163.5 29
t117.5 84t54 136l-20 2q-5 -45 -26.5 -88.5t-62.5 -75t-98.5 -49.5t-127.5 -18q-73 0 -137 25.5t-110.5 71.5t-72 109.5t-25.5 134.5q0 76 26.5 138t74.5 103.5t112.5 63t137.5 21.5z" />
    <glyph glyph-name="ccircumflex" unicode="&#x109;" horiz-adv-x="665" 
d="M523 576l-170 137l-169 -137h-26l175 159h40l176 -159h-26zM577 362q-18 55 -77 94.5t-144 39.5q-54 0 -99.5 -17.5t-78 -50.5t-50 -80t-17.5 -103q0 -54 17.5 -100t50.5 -78.5t79.5 -50t100.5 -17.5q57 0 105.5 20t76 51.5t40.5 60.5l19 -8q-30 -68 -93 -106t-148 -38
q-120 0 -194 73.5t-74 192.5q0 61 19 111.5t54 86t84 54.5t108 19q63 0 112 -20t82 -54t43 -73z" />
    <glyph glyph-name="Cdotaccent" unicode="&#x10a;" horiz-adv-x="902" 
d="M470 727q-13 0 -22 8.5t-9 21.5q0 16 9 23.5t21 7.5q13 0 22 -8.5t9 -21.5q0 -16 -9 -23.5t-21 -7.5zM478 665q-73 0 -137.5 -21.5t-112.5 -63t-74.5 -103.5t-26.5 -138q0 -71 25.5 -134.5t72 -109.5t110.5 -71.5t137 -25.5q55 0 108 12.5t97 40t73.5 72.5t36.5 106
l20 -2q-9 -81 -54 -136t-117.5 -84t-163.5 -29q-77 0 -145 27t-117 76t-76 115.5t-27 142.5q0 82 28 147.5t78.5 109.5t118.5 66.5t146 22.5q96 0 162.5 -29t106 -78t54.5 -118l-18 -8q-28 110 -106.5 161.5t-198.5 51.5z" />
    <glyph glyph-name="cdotaccent" unicode="&#x10b;" horiz-adv-x="665" 
d="M355 586q-13 0 -22 8.5t-9 21.5q0 16 9 23.5t21 7.5q13 0 22 -8.5t9 -21.5q0 -16 -9 -23.5t-21 -7.5zM577 362q-18 55 -77 94.5t-144 39.5q-54 0 -99.5 -17.5t-78 -50.5t-50 -80t-17.5 -103q0 -54 17.5 -100t50.5 -78.5t79.5 -50t100.5 -17.5q57 0 105.5 20t76 51.5
t40.5 60.5l19 -8q-30 -68 -93 -106t-148 -38q-120 0 -194 73.5t-74 192.5q0 61 19 111.5t54 86t84 54.5t108 19q63 0 112 -20t82 -54t43 -73z" />
    <glyph glyph-name="Ccaron" unicode="&#x10c;" horiz-adv-x="902" 
d="M301 894l170 -137l169 137h26l-175 -159h-40l-176 159h26zM478 665q120 0 198.5 -51.5t106.5 -161.5l18 8q-15 69 -54.5 118t-106 78t-162.5 29q-78 0 -146 -22.5t-118.5 -66.5t-78.5 -109.5t-28 -147.5q0 -76 27 -142.5t76 -115.5t117 -76t145 -27q91 0 163.5 29
t117.5 84t54 136l-20 2q-5 -45 -26.5 -88.5t-62.5 -75t-98.5 -49.5t-127.5 -18q-73 0 -137 25.5t-110.5 71.5t-72 109.5t-25.5 134.5q0 76 26.5 138t74.5 103.5t112.5 63t137.5 21.5z" />
    <glyph glyph-name="ccaron" unicode="&#x10d;" horiz-adv-x="665" 
d="M183 735l170 -137l169 137h26l-175 -159h-40l-176 159h26zM577 362q-18 55 -77 94.5t-144 39.5q-54 0 -99.5 -17.5t-78 -50.5t-50 -80t-17.5 -103q0 -54 17.5 -100t50.5 -78.5t79.5 -50t100.5 -17.5q57 0 105.5 20t76 51.5t40.5 60.5l19 -8q-30 -68 -93 -106t-148 -38
q-120 0 -194 73.5t-74 192.5q0 61 19 111.5t54 86t84 54.5t108 19q63 0 112 -20t82 -54t43 -73z" />
    <glyph glyph-name="Dcaron" unicode="&#x10e;" horiz-adv-x="935" 
d="M312 886l170 -137l169 137h26l-175 -159h-40l-176 159h26zM166 0v665h330q72 0 134 -22.5t106.5 -64.5t68.5 -100t24 -126q0 -74 -23.5 -139t-68 -112.5t-106.5 -74t-136 -26.5h-329zM186 645v-625h309q69 0 128 25t100.5 69.5t63.5 106t22 131.5q0 63 -22.5 117.5
t-64.5 94t-100 60.5t-126 21h-310z" />
    <glyph glyph-name="dcaron" unicode="&#x10f;" horiz-adv-x="752" 
d="M733 661q-20 0 -31.5 12.5t-11.5 30.5t11 31t31 13t32 -12.5t12 -35.5q0 -22 -14 -57.5t-44 -67.5l-16 12q12 14 24 31t21 45zM614 0h-20v109q-32 -61 -93.5 -95.5t-141.5 -34.5q-120 0 -194 73.5t-74 192.5q0 61 19 111.5t54 86t84 54.5t108 19q38 0 84.5 -11.5
t88 -43.5t65.5 -77v281h20v-665zM359 -1q89 0 150.5 44.5t84.5 123.5v163q-22 77 -85.5 121.5t-152.5 44.5q-54 0 -99.5 -17.5t-78 -50.5t-50 -80t-17.5 -103q0 -54 17.5 -100t50.5 -78.5t79.5 -50t100.5 -17.5z" />
    <glyph glyph-name="Dcroat" unicode="&#x110;" horiz-adv-x="946" 
d="M175 0v336h-73v20h73v309h330q72 0 134 -22.5t106.5 -64.5t68.5 -100t24 -126q0 -74 -23.5 -139t-68 -112.5t-106.5 -74t-136 -26.5h-329zM195 645v-289h267v-20h-267v-316h309q69 0 128 25t100.5 69.5t63.5 106t22 131.5q0 63 -22.5 117.5t-64.5 94t-100 60.5t-126 21
h-310z" />
    <glyph glyph-name="dcroat" unicode="&#x111;" horiz-adv-x="752" 
d="M614 600h71v-20h-71v-580h-20v109q-32 -61 -93.5 -95.5t-141.5 -34.5q-120 0 -194 73.5t-74 192.5q0 61 19 111.5t54 86t84 54.5t108 19q38 0 84.5 -11.5t88 -43.5t65.5 -77v196h-151v20h151v65h20v-65zM359 -1q89 0 150.5 44.5t84.5 123.5v163q-22 77 -85.5 121.5
t-152.5 44.5q-54 0 -99.5 -17.5t-78 -50.5t-50 -80t-17.5 -103q0 -54 17.5 -100t50.5 -78.5t79.5 -50t100.5 -17.5z" />
    <glyph glyph-name="Emacron" unicode="&#x112;" horiz-adv-x="831" 
d="M670 784v-20h-380v20h380zM778 20v-20h-612v665h593v-20h-574v-295h491v-20h-491v-310h593z" />
    <glyph glyph-name="emacron" unicode="&#x113;" horiz-adv-x="705" 
d="M545 669v-20h-380v20h380zM356 516q56 0 104 -17t83.5 -49t56 -77t24.5 -99l-8 -42l-505 4q3 -107 71 -172t177 -65q77 0 134.5 34t86.5 96l18 -10q-30 -66 -93.5 -103t-145.5 -37q-120 0 -194 73.5t-74 192.5q0 61 19 111.5t54 86t84 54.5t108 19zM111 256l489 -4l4 23
q-4 99 -73 160t-175 61q-67 0 -119.5 -26t-81 -69t-36 -81t-8.5 -64z" />
    <glyph glyph-name="Ebreve" unicode="&#x114;" horiz-adv-x="831" 
d="M595 875q0 -40 -20.5 -78t-49 -53.5t-55.5 -15.5t-55.5 15.5t-49 53.5t-20.5 78h20q0 -48 30 -87.5t75 -39.5t75 39.5t30 87.5h20zM778 20v-20h-612v665h593v-20h-574v-295h491v-20h-491v-310h593z" />
    <glyph glyph-name="ebreve" unicode="&#x115;" horiz-adv-x="705" 
d="M359 591q-27 0 -55.5 15.5t-49 53.5t-20.5 78h20q0 -48 30 -87.5t75 -39.5t75 39.5t30 87.5h20q0 -40 -20.5 -78t-49 -53.5t-55.5 -15.5zM356 516q56 0 104 -17t83.5 -49t56 -77t24.5 -99l-8 -42l-505 4q3 -107 71 -172t177 -65q77 0 134.5 34t86.5 96l18 -10
q-30 -66 -93.5 -103t-145.5 -37q-120 0 -194 73.5t-74 192.5q0 61 19 111.5t54 86t84 54.5t108 19zM111 256l489 -4l4 23q-4 99 -73 160t-175 61q-67 0 -119.5 -26t-81 -69t-36 -81t-8.5 -64z" />
    <glyph glyph-name="Edotaccent" unicode="&#x116;" horiz-adv-x="831" 
d="M478 722q-13 0 -22 8.5t-9 21.5q0 16 9 23.5t21 7.5q13 0 22 -8.5t9 -21.5q0 -16 -9 -23.5t-21 -7.5zM778 20v-20h-612v665h593v-20h-574v-295h491v-20h-491v-310h593z" />
    <glyph glyph-name="edotaccent" unicode="&#x117;" horiz-adv-x="705" 
d="M359 587q-13 0 -22 8.5t-9 21.5q0 16 9 23.5t21 7.5q13 0 22 -8.5t9 -21.5q0 -16 -9 -23.5t-21 -7.5zM356 516q56 0 104 -17t83.5 -49t56 -77t24.5 -99l-8 -42l-505 4q3 -107 71 -172t177 -65q77 0 134.5 34t86.5 96l18 -10q-30 -66 -93.5 -103t-145.5 -37
q-120 0 -194 73.5t-74 192.5q0 61 19 111.5t54 86t84 54.5t108 19zM111 256l489 -4l4 23q-4 99 -73 160t-175 61q-67 0 -119.5 -26t-81 -69t-36 -81t-8.5 -64z" />
    <glyph glyph-name="Eogonek" unicode="&#x118;" horiz-adv-x="830" 
d="M778 20v-20q-44 0 -73 -10.5t-46 -30t-17 -42.5q0 -15 9.5 -34.5t34.5 -35t57 -15.5q34 0 65 15l8 -18q-37 -17 -73 -17q-38 0 -68 19t-41.5 43.5t-11.5 42.5q0 26 16 48t48 35h-520v665h593v-20h-574v-295h491v-20h-491v-310h593z" />
    <glyph glyph-name="eogonek" unicode="&#x119;" horiz-adv-x="704" 
d="M356 516q56 0 104 -17t83.5 -49t56 -77t24.5 -99l-8 -42l-505 4q3 -107 71 -172t177 -65q77 0 134.5 34t86.5 96l18 -10q-22 -48 -62.5 -81.5t-92.5 -47.5q-31 -10 -47 -30.5t-16 -42.5q0 -15 9.5 -34.5t34.5 -35t57 -15.5q34 0 65 15l8 -18q-37 -17 -73 -17
q-38 0 -68 19t-41.5 43.5t-11.5 42.5q0 17 8.5 34.5t23.5 29.5l-33 -2q-120 0 -194 73.5t-74 192.5q0 61 19 111.5t54 86t84 54.5t108 19zM111 256l489 -4q4 11 4 23q-4 99 -73 160t-175 61q-67 0 -119.5 -26t-81 -69t-36 -81t-8.5 -64z" />
    <glyph glyph-name="Ecaron" unicode="&#x11a;" horiz-adv-x="831" 
d="M314 889l170 -137l169 137h26l-175 -159h-40l-176 159h26zM778 20v-20h-612v665h593v-20h-574v-295h491v-20h-491v-310h593z" />
    <glyph glyph-name="ecaron" unicode="&#x11b;" horiz-adv-x="705" 
d="M375 583h-40l-176 159h26l170 -137l169 137h26zM356 516q56 0 104 -17t83.5 -49t56 -77t24.5 -99l-8 -42l-505 4q3 -107 71 -172t177 -65q77 0 134.5 34t86.5 96l18 -10q-30 -66 -93.5 -103t-145.5 -37q-120 0 -194 73.5t-74 192.5q0 61 19 111.5t54 86t84 54.5t108 19z
M111 256l489 -4l4 23q-4 99 -73 160t-175 61q-67 0 -119.5 -26t-81 -69t-36 -81t-8.5 -64z" />
    <glyph glyph-name="Gcircumflex" unicode="&#x11c;" horiz-adv-x="903" 
d="M626 728l-170 137l-169 -137h-26l175 159h40l176 -159h-26zM463 670q120 0 198.5 -51.5t106.5 -161.5l18 8q-15 69 -54.5 118t-106 78t-162.5 29q-78 0 -143.5 -25.5t-112.5 -72.5t-72 -114.5t-25 -147.5q0 -77 25.5 -142.5t73 -112.5t113.5 -72.5t144 -25.5
q75 0 136.5 24.5t104.5 71t66 114t23 149.5h-334v-20h314q-3 -72 -25 -131.5t-61.5 -101.5t-96.5 -64t-127 -22q-73 0 -135.5 24t-107.5 68t-69 106t-24 135q0 76 24 139.5t68 108t106 68.5t135 24z" />
    <glyph glyph-name="gcircumflex" unicode="&#x11d;" horiz-adv-x="752" 
d="M537 581l-170 137l-169 -137h-26l175 159h40l176 -159h-26zM614 35q0 -256 -257 -256q-73 0 -133.5 27t-93.5 82l17 10q15 -25 43.5 -49t73 -37t93.5 -13q237 0 237 236v74q-32 -61 -93.5 -95.5t-141.5 -34.5q-120 0 -194 73.5t-74 192.5q0 61 19 111.5t54 86t84 54.5
t108 19q38 0 84.5 -11.5t88 -43.5t65.5 -77v116h20v-465zM359 -1q89 0 150.5 44.5t84.5 123.5v163q-22 77 -85.5 121.5t-152.5 44.5q-54 0 -99.5 -17.5t-78 -50.5t-50 -80t-17.5 -103q0 -54 17.5 -100t50.5 -78.5t79.5 -50t100.5 -17.5z" />
    <glyph glyph-name="Gbreve" unicode="&#x11e;" horiz-adv-x="903" 
d="M581 871q0 -40 -20.5 -78t-49 -53.5t-55.5 -15.5t-55.5 15.5t-49 53.5t-20.5 78h20q0 -48 30 -87.5t75 -39.5t75 39.5t30 87.5h20zM463 670q120 0 198.5 -51.5t106.5 -161.5l18 8q-15 69 -54.5 118t-106 78t-162.5 29q-78 0 -143.5 -25.5t-112.5 -72.5t-72 -114.5
t-25 -147.5q0 -77 25.5 -142.5t73 -112.5t113.5 -72.5t144 -25.5q75 0 136.5 24.5t104.5 71t66 114t23 149.5h-334v-20h314q-3 -72 -25 -131.5t-61.5 -101.5t-96.5 -64t-127 -22q-73 0 -135.5 24t-107.5 68t-69 106t-24 135q0 76 24 139.5t68 108t106 68.5t135 24z" />
    <glyph glyph-name="gbreve" unicode="&#x11f;" horiz-adv-x="752" 
d="M497 725q0 -40 -20.5 -78t-49 -53.5t-55.5 -15.5t-55.5 15.5t-49 53.5t-20.5 78h20q0 -48 30 -87.5t75 -39.5t75 39.5t30 87.5h20zM614 35q0 -256 -257 -256q-73 0 -133.5 27t-93.5 82l17 10q15 -25 43.5 -49t73 -37t93.5 -13q237 0 237 236v74q-32 -61 -93.5 -95.5
t-141.5 -34.5q-120 0 -194 73.5t-74 192.5q0 61 19 111.5t54 86t84 54.5t108 19q38 0 84.5 -11.5t88 -43.5t65.5 -77v116h20v-465zM359 -1q89 0 150.5 44.5t84.5 123.5v163q-22 77 -85.5 121.5t-152.5 44.5q-54 0 -99.5 -17.5t-78 -50.5t-50 -80t-17.5 -103q0 -54 17.5 -100
t50.5 -78.5t79.5 -50t100.5 -17.5z" />
    <glyph glyph-name="Gdotaccent" unicode="&#x120;" horiz-adv-x="903" 
d="M452 729q-13 0 -22 8.5t-9 21.5q0 16 9 23.5t21 7.5q13 0 22 -8.5t9 -21.5q0 -16 -9 -23.5t-21 -7.5zM463 670q-73 0 -135 -24t-106 -68.5t-68 -108t-24 -139.5q0 -73 24 -135t69 -106t107.5 -68t135.5 -24q70 0 127 22t96.5 64t61.5 101.5t25 131.5h-314v20h334
q0 -82 -23 -149.5t-66 -114t-104.5 -71t-136.5 -24.5q-78 0 -144 25.5t-113.5 72.5t-73 112.5t-25.5 142.5q0 80 25 147.5t72 114.5t112.5 72.5t143.5 25.5q96 0 162.5 -29t106 -78t54.5 -118l-18 -8q-28 110 -106.5 161.5t-198.5 51.5z" />
    <glyph glyph-name="gdotaccent" unicode="&#x121;" horiz-adv-x="752" 
d="M367 587q-13 0 -22 8.5t-9 21.5q0 16 9 23.5t21 7.5q13 0 22 -8.5t9 -21.5q0 -16 -9 -23.5t-21 -7.5zM614 35q0 -256 -257 -256q-73 0 -133.5 27t-93.5 82l17 10q15 -25 43.5 -49t73 -37t93.5 -13q237 0 237 236v74q-32 -61 -93.5 -95.5t-141.5 -34.5q-120 0 -194 73.5
t-74 192.5q0 61 19 111.5t54 86t84 54.5t108 19q38 0 84.5 -11.5t88 -43.5t65.5 -77v116h20v-465zM359 -1q89 0 150.5 44.5t84.5 123.5v163q-22 77 -85.5 121.5t-152.5 44.5q-54 0 -99.5 -17.5t-78 -50.5t-50 -80t-17.5 -103q0 -54 17.5 -100t50.5 -78.5t79.5 -50
t100.5 -17.5z" />
    <glyph glyph-name="Gcommaaccent" unicode="&#x122;" horiz-adv-x="903" 
d="M463 670q-73 0 -135 -24t-106 -68.5t-68 -108t-24 -139.5q0 -73 24 -135t69 -106t107.5 -68t135.5 -24q70 0 127 22t96.5 64t61.5 101.5t25 131.5h-314v20h334q0 -82 -23 -149.5t-66 -114t-104.5 -71t-136.5 -24.5q-78 0 -144 25.5t-113.5 72.5t-73 112.5t-25.5 142.5
q0 80 25 147.5t72 114.5t112.5 72.5t143.5 25.5q96 0 162.5 -29t106 -78t54.5 -118l-18 -8q-28 110 -106.5 161.5t-198.5 51.5zM471 -175q-21 0 -32.5 11.5t-11.5 31.5q0 44 43 44q20 0 32 -12t12 -31q0 -24 -11.5 -53t-62.5 -99l-16 12q49 69 61 98z" />
    <glyph glyph-name="gcommaaccent" unicode="&#x123;" horiz-adv-x="752" 
d="M374 655q21 0 32.5 -11.5t11.5 -31.5q0 -44 -43 -44q-20 0 -32 12t-12 31v5q1 22 13 51t61 96l16 -12q-49 -69 -61 -98zM614 35q0 -256 -257 -256q-73 0 -133.5 27t-93.5 82l17 10q15 -25 43.5 -49t73 -37t93.5 -13q237 0 237 236v74q-32 -61 -93.5 -95.5t-141.5 -34.5
q-120 0 -194 73.5t-74 192.5q0 61 19 111.5t54 86t84 54.5t108 19q38 0 84.5 -11.5t88 -43.5t65.5 -77v116h20v-465zM359 -1q89 0 150.5 44.5t84.5 123.5v163q-22 77 -85.5 121.5t-152.5 44.5q-54 0 -99.5 -17.5t-78 -50.5t-50 -80t-17.5 -103q0 -54 17.5 -100t50.5 -78.5
t79.5 -50t100.5 -17.5z" />
    <glyph glyph-name="Hcircumflex" unicode="&#x124;" horiz-adv-x="965" 
d="M658 728l-170 137l-169 -137h-26l175 159h40l176 -159h-26zM799 665v-665h-20v332h-593v-332h-20v665h20v-313h593v313h20z" />
    <glyph glyph-name="hcircumflex" unicode="&#x125;" 
d="M565 720l-170 137l-169 -137h-26l175 159h40l176 -159h-26zM158 358q47 76 115.5 114.5t164.5 38.5q40 0 78.5 -14t68 -39.5t46.5 -61.5t17 -78v-318h-20v318q0 28 -10.5 58t-35 55.5t-62 42.5t-82.5 17q-37 0 -86.5 -11t-101 -48t-92.5 -104v-328h-20v665h20v-307z" />
    <glyph glyph-name="Hbar" unicode="&#x126;" horiz-adv-x="974" 
d="M804 665v-184h45v-20h-45v-461h-20v332h-593v-332h-20v461h-48v20h48v184h20v-184h593v184h20zM784 352v109h-593v-109h593z" />
    <glyph glyph-name="hbar" unicode="&#x127;" 
d="M158 598h164v-20h-164v-220q47 76 115.5 114.5t164.5 38.5q40 0 78.5 -14t68 -39.5t46.5 -61.5t17 -78v-318h-20v318q0 28 -10.5 58t-35 55.5t-62 42.5t-82.5 17q-37 0 -86.5 -11t-101 -48t-92.5 -104v-328h-20v578h-71v20h71v67l20 1v-68z" />
    <glyph glyph-name="Itilde" unicode="&#x128;" horiz-adv-x="354" 
d="M351 817q-23 -82 -87 -82q-42 0 -106 35t-81.5 39.5t-27.5 4.5q-35 0 -49 -61l-20 4q19 78 70 78q11 0 30.5 -5t71.5 -33t74 -35.5t38 -7.5q48 0 67 67zM186 0h-20v665h20v-665z" />
    <glyph glyph-name="itilde" unicode="&#x129;" horiz-adv-x="298" 
d="M325 682q-23 -82 -87 -82q-42 0 -106 35t-81.5 39.5t-27.5 4.5q-35 0 -49 -61l-20 4q19 78 70 78q11 0 30.5 -5t71.5 -33t74 -35.5t38 -7.5q48 0 67 67zM160 0h-20v500h20v-500z" />
    <glyph glyph-name="Imacron" unicode="&#x12a;" horiz-adv-x="352" 
d="M315 778v-20h-300v20h300zM186 0h-20v665h20v-665z" />
    <glyph glyph-name="imacron" unicode="&#x12b;" horiz-adv-x="296" 
d="M291 672v-20h-300v20h300zM158 0h-20v500h20v-500z" />
    <glyph glyph-name="Ibreve" unicode="&#x12c;" horiz-adv-x="352" 
d="M300 874q0 -40 -20.5 -78t-49 -53.5t-55.5 -15.5t-55.5 15.5t-49 53.5t-20.5 78h20q0 -48 30 -87.5t75 -39.5t75 39.5t30 87.5h20zM186 0h-20v665h20v-665z" />
    <glyph glyph-name="ibreve" unicode="&#x12d;" horiz-adv-x="296" 
d="M272 731q0 -40 -20.5 -78t-49 -53.5t-55.5 -15.5t-55.5 15.5t-49 53.5t-20.5 78h20q0 -48 30 -87.5t75 -39.5t75 39.5t30 87.5h20zM158 0h-20v500h20v-500z" />
    <glyph glyph-name="Iogonek" unicode="&#x12e;" horiz-adv-x="359" 
d="M192 0h-9q-33 -1 -63 -10t-47.5 -29.5t-17.5 -43.5q0 -15 9.5 -34.5t34.5 -35t57 -15.5q34 0 65 15l8 -18q-37 -17 -73 -17q-38 0 -68 19t-41.5 43.5t-11.5 42.5q0 38 35 65.5t102 30.5v652h20v-665z" />
    <glyph glyph-name="iogonek" unicode="&#x12f;" horiz-adv-x="303" 
d="M155 626q-13 0 -22 8.5t-9 21.5q0 16 9 23.5t21 7.5q13 0 22 -8.5t9 -21.5q0 -16 -9 -23.5t-21 -7.5zM165 0h-2q-44 0 -73 -10.5t-46 -30t-17 -42.5q0 -15 9.5 -34.5t34.5 -35t57 -15.5q34 0 65 15l8 -18q-37 -17 -73 -17q-38 0 -68 19t-41.5 43.5t-11.5 42.5
q0 27 17.5 48.5t47 33.5t73.5 14v487h20v-500z" />
    <glyph glyph-name="Idotaccent" unicode="&#x130;" horiz-adv-x="352" 
d="M176 722q-13 0 -22 8.5t-9 21.5q0 16 9 23.5t21 7.5q13 0 22 -8.5t9 -21.5q0 -16 -9 -23.5t-21 -7.5zM186 0h-20v665h20v-665z" />
    <glyph glyph-name="dotlessi" unicode="&#x131;" horiz-adv-x="296" 
d="M158 0h-20v500h20v-500z" />
    <glyph glyph-name="IJ" unicode="&#x132;" horiz-adv-x="1098" 
d="M186 0h-20v665h20v-665zM929 665v-419q0 -55 -18 -101.5t-53.5 -79.5t-89 -51t-122.5 -18q-83 0 -142.5 26.5t-98.5 80t-52 138.5l-20 -3q9 -59 31.5 -107.5t61 -83t94 -53t126.5 -18.5q73 0 130.5 19.5t96 55t57.5 85.5t19 110v419h-20z" />
    <glyph glyph-name="ij" unicode="&#x133;" horiz-adv-x="605" 
d="M147 626q-13 0 -22 8.5t-9 21.5q0 16 9 23.5t21 7.5q13 0 22 -8.5t9 -21.5q0 -16 -9 -23.5t-21 -7.5zM457 626q-13 0 -22 8.5t-9 21.5q0 16 9 23.5t21 7.5q13 0 22 -8.5t9 -21.5q0 -16 -9 -23.5t-21 -7.5zM157 0h-20v500h20v-500zM467 35q0 -248 -242 -256v20
q222 8 222 236v465h20v-465z" />
    <glyph glyph-name="Jcircumflex" unicode="&#x134;" horiz-adv-x="835" 
d="M829 727l-170 137l-169 -137h-26l175 159h40l176 -159h-26zM658 665v-419q0 -55 -18 -101.5t-53.5 -79.5t-89 -51t-122.5 -18q-83 0 -142.5 26.5t-98.5 80t-52 138.5l-20 -3q9 -59 31.5 -107.5t61 -83t94 -53t126.5 -18.5q73 0 130.5 19.5t96 55t57.5 85.5t19 110v419
h-20z" />
    <glyph glyph-name="jcircumflex" unicode="&#x135;" horiz-adv-x="300" 
d="M318 575l-170 137l-169 -137h-26l175 159h40l176 -159h-26zM158 35q0 -248 -242 -256v20q222 8 222 236v465h20v-465z" />
    <glyph glyph-name="Kcommaaccent" unicode="&#x136;" horiz-adv-x="923" 
d="M843 0l-373 383l-284 -207v-176h-20v665h20v-464l639 464h34l-373 -271l385 -394h-28zM487 -176l14 2q-12 -29 -61 -98l16 -12q51 70 62.5 99t11.5 53q0 19 -12 31t-32 12q-43 0 -43 -44q0 -20 11.5 -31.5t32.5 -11.5z" />
    <glyph glyph-name="kcommaaccent" unicode="&#x137;" horiz-adv-x="706" 
d="M390 -175l14 2q-12 -29 -61 -98l16 -12q51 70 62.5 99t11.5 53q0 19 -12 31t-32 12q-43 0 -43 -44q0 -20 11.5 -31.5t32.5 -11.5zM625 500l-219 -187l30 -53q59 -104 90.5 -150.5t61.5 -72t62 -25.5q14 0 40 7l6 -19q-27 -8 -46 -8q-23 0 -44 9.5t-40.5 28t-46 54.5
t-100.5 166l-28 50l-233 -198v-102h-20v665h20v-537l437 372h30z" />
    <glyph glyph-name="kgreenlandic" unicode="&#x138;" horiz-adv-x="680" 
d="M158 128l438 372h30l-224 -191l237 -309h-25l-227 296l-229 -194v-102h-20v500h20v-372z" />
    <glyph glyph-name="Lacute" unicode="&#x139;" horiz-adv-x="761" 
d="M211 892h41l-66 -168h-15zM725 20v-20h-559v665h20v-645h539z" />
    <glyph glyph-name="lacute" unicode="&#x13a;" horiz-adv-x="334" 
d="M169 898h41l-66 -168h-15zM147 208q0 -103 38 -148.5t113 -45.5v-20q-84 0 -127.5 50.5t-43.5 163.5v457h20v-457z" />
    <glyph glyph-name="Lcommaaccent" unicode="&#x13b;" horiz-adv-x="762" 
d="M725 20v-20h-559v665h20v-645h539zM441 -175l14 2q-12 -29 -61 -98l16 -12q51 70 62.5 99t11.5 53q0 19 -12 31t-32 12q-43 0 -43 -44q0 -20 11.5 -31.5t32.5 -11.5z" />
    <glyph glyph-name="lcommaaccent" unicode="&#x13c;" horiz-adv-x="330" 
d="M146 208q0 -103 38 -148.5t113 -45.5v-20q-84 0 -127.5 50.5t-43.5 163.5v457h20v-457zM184 -175l14 2q-12 -29 -61 -98l16 -12q51 70 62.5 99t11.5 53q0 19 -12 31t-32 12q-43 0 -43 -44q0 -20 11.5 -31.5t32.5 -11.5z" />
    <glyph glyph-name="Lcaron" unicode="&#x13d;" horiz-adv-x="761" 
d="M472 667q-20 0 -31.5 12.5t-11.5 30.5t11 31t31 13t32 -12.5t12 -35.5q0 -22 -14 -57.5t-44 -67.5l-16 12q12 14 24 31t21 45zM725 20v-20h-559v665h20v-645h539z" />
    <glyph glyph-name="lcaron" unicode="&#x13e;" horiz-adv-x="334" 
d="M338 661q-20 0 -31.5 12.5t-11.5 30.5t11 31t31 13t32 -12.5t12 -35.5q0 -22 -14 -57.5t-44 -67.5l-16 12q12 14 24 31t21 45zM147 208q0 -103 38 -148.5t113 -45.5v-20q-84 0 -127.5 50.5t-43.5 163.5v457h20v-457z" />
    <glyph glyph-name="Ldot" unicode="&#x13f;" horiz-adv-x="763" 
d="M725 20v-20h-559v665h20v-645h539zM479 347q12 0 21 7.5t9 23.5q0 13 -9 21.5t-22 8.5q-12 0 -21 -7.5t-9 -23.5q0 -13 9 -21.5t22 -8.5z" />
    <glyph glyph-name="ldot" unicode="&#x140;" horiz-adv-x="443" 
d="M147 208q0 -103 38 -148.5t113 -45.5v-20q-84 0 -127.5 50.5t-43.5 163.5v457h20v-457zM366 264q12 0 21 7.5t9 23.5q0 13 -9 21.5t-22 8.5q-12 0 -21 -7.5t-9 -23.5q0 -13 9 -21.5t22 -8.5z" />
    <glyph glyph-name="Lslash" unicode="&#x141;" horiz-adv-x="771" 
d="M733 20v-20h-559v318l-62 -26l-9 18l71 30v325h20v-317l87 37l8 -19l-95 -40v-306h539z" />
    <glyph glyph-name="lslash" unicode="&#x142;" horiz-adv-x="352" 
d="M160 208q0 -103 38 -148.5t113 -45.5v-20q-84 0 -127.5 50.5t-43.5 163.5v154l-70 -29v22l70 29v281h20v-272l88 37v-22l-88 -37v-163z" />
    <glyph glyph-name="Nacute" unicode="&#x143;" horiz-adv-x="995" 
d="M560 889h41l-66 -168h-15zM187 637v-637h-21v665h22l621 -645v645h20v-665h-27z" />
    <glyph glyph-name="nacute" unicode="&#x144;" 
d="M436 749h41l-66 -168h-15zM158 358q47 76 115.5 114.5t164.5 38.5q40 0 78.5 -14t68 -39.5t46.5 -61.5t17 -78v-318h-20v318q0 28 -10.5 58t-35 55.5t-62 42.5t-82.5 17q-37 0 -86.5 -11t-101 -48t-92.5 -104v-328h-20v500h20v-142z" />
    <glyph glyph-name="Ncommaaccent" unicode="&#x145;" horiz-adv-x="995" 
d="M187 637v-637h-21v665h22l621 -645v645h20v-665h-27zM507 -175l14 2q-12 -29 -61 -98l16 -12q51 70 62.5 99t11.5 53q0 19 -12 31t-32 12q-43 0 -43 -44q0 -20 11.5 -31.5t32.5 -11.5z" />
    <glyph glyph-name="ncommaaccent" unicode="&#x146;" horiz-adv-x="770" 
d="M157 358q47 76 115.5 114.5t164.5 38.5q40 0 78.5 -14t68 -39.5t46.5 -61.5t17 -78v-318h-20v318q0 28 -10.5 58t-35 55.5t-62 42.5t-82.5 17q-37 0 -86.5 -11t-101 -48t-92.5 -104v-328h-20v500h20v-142zM411 -169l14 2q-12 -29 -61 -98l16 -12q51 70 62.5 99t11.5 53
q0 19 -12 31t-32 12q-43 0 -43 -44q0 -20 11.5 -31.5t32.5 -11.5z" />
    <glyph glyph-name="Ncaron" unicode="&#x147;" horiz-adv-x="995" 
d="M343 880l170 -137l169 137h26l-175 -159h-40l-176 159h26zM187 637v-637h-21v665h22l621 -645v645h20v-665h-27z" />
    <glyph glyph-name="ncaron" unicode="&#x148;" 
d="M233 743l170 -137l169 137h26l-175 -159h-40l-176 159h26zM158 358q47 76 115.5 114.5t164.5 38.5q40 0 78.5 -14t68 -39.5t46.5 -61.5t17 -78v-318h-20v318q0 28 -10.5 58t-35 55.5t-62 42.5t-82.5 17q-37 0 -86.5 -11t-101 -48t-92.5 -104v-328h-20v500h20v-142z" />
    <glyph glyph-name="napostrophe" unicode="&#x149;" 
d="M28 776h20v-243h-20v243zM158 358q47 76 115.5 114.5t164.5 38.5q40 0 78.5 -14t68 -39.5t46.5 -61.5t17 -78v-318h-20v318q0 28 -10.5 58t-35 55.5t-62 42.5t-82.5 17q-37 0 -86.5 -11t-101 -48t-92.5 -104v-328h-20v500h20v-142z" />
    <glyph glyph-name="Eng" unicode="&#x14a;" horiz-adv-x="995" 
d="M187 0h-21v665h22l621 -645v645h20v-667q0 -60 -19 -110t-57.5 -85.5t-96 -55t-130.5 -19.5q-45 0 -93.5 14t-102.5 54l12 16q40 -29 84 -46.5t100 -17.5q85 0 146 26.5t98 80.5t39 136q-7 12 -622 646v-637z" />
    <glyph glyph-name="eng" unicode="&#x14b;" horiz-adv-x="770" 
d="M157 358q47 76 115.5 114.5t164.5 38.5q40 0 78.5 -14t68 -39.5t46.5 -61.5t17 -78v-283q0 -248 -242 -256v20q222 8 222 236v283q0 28 -10.5 58t-35 55.5t-62 42.5t-82.5 17q-37 0 -86.5 -11t-101 -48t-92.5 -104v-328h-20v500h20v-142z" />
    <glyph glyph-name="Omacron" unicode="&#x14c;" horiz-adv-x="929" 
d="M658 791v-20h-380v20h380zM466 -23q-78 0 -144 25.5t-113.5 72.5t-73 112.5t-25.5 142.5q0 80 25 147.5t72 114.5t112.5 72.5t143.5 25.5t144 -25.5t113.5 -72.5t73 -112.5t25.5 -142.5q0 -80 -25 -147.5t-72 -114.5t-112.5 -72.5t-143.5 -25.5zM466 -3q73 0 135 24
t106 68.5t68 108t24 139.5q0 73 -24 135t-69 106t-107.5 68t-135.5 24t-135 -24t-106 -68.5t-68 -108t-24 -139.5q0 -73 24 -135t69 -106t107.5 -68t135.5 -24z" />
    <glyph glyph-name="omacron" unicode="&#x14d;" horiz-adv-x="716" 
d="M548 666v-20h-380v20h380zM359 -21q-120 0 -194 73.5t-74 192.5q0 61 19 111.5t54 86t84 54.5t108 19q120 0 194.5 -73.5t74.5 -192.5q0 -123 -73 -197t-193 -74zM359 -1q54 0 100 17.5t78.5 50.5t50 80t17.5 103q0 110 -69 178t-180 68q-54 0 -99.5 -17.5t-78 -50.5
t-50 -80t-17.5 -103q0 -54 17.5 -100t50.5 -78.5t79.5 -50t100.5 -17.5z" />
    <glyph glyph-name="Obreve" unicode="&#x14e;" horiz-adv-x="929" 
d="M601 875q0 -40 -20.5 -78t-49 -53.5t-55.5 -15.5t-55.5 15.5t-49 53.5t-20.5 78h20q0 -48 30 -87.5t75 -39.5t75 39.5t30 87.5h20zM466 -23q-78 0 -144 25.5t-113.5 72.5t-73 112.5t-25.5 142.5q0 80 25 147.5t72 114.5t112.5 72.5t143.5 25.5t144 -25.5t113.5 -72.5
t73 -112.5t25.5 -142.5q0 -80 -25 -147.5t-72 -114.5t-112.5 -72.5t-143.5 -25.5zM466 -3q73 0 135 24t106 68.5t68 108t24 139.5q0 73 -24 135t-69 106t-107.5 68t-135.5 24t-135 -24t-106 -68.5t-68 -108t-24 -139.5q0 -73 24 -135t69 -106t107.5 -68t135.5 -24z" />
    <glyph glyph-name="obreve" unicode="&#x14f;" horiz-adv-x="716" 
d="M483 734q0 -40 -20.5 -78t-49 -53.5t-55.5 -15.5t-55.5 15.5t-49 53.5t-20.5 78h20q0 -48 30 -87.5t75 -39.5t75 39.5t30 87.5h20zM359 -21q-120 0 -194 73.5t-74 192.5q0 61 19 111.5t54 86t84 54.5t108 19q120 0 194.5 -73.5t74.5 -192.5q0 -123 -73 -197t-193 -74z
M359 -1q54 0 100 17.5t78.5 50.5t50 80t17.5 103q0 110 -69 178t-180 68q-54 0 -99.5 -17.5t-78 -50.5t-50 -80t-17.5 -103q0 -54 17.5 -100t50.5 -78.5t79.5 -50t100.5 -17.5z" />
    <glyph glyph-name="Ohungarumlaut" unicode="&#x150;" horiz-adv-x="929" 
d="M432 892h41l-66 -168h-15zM560 892h41l-66 -168h-15zM466 -23q-78 0 -144 25.5t-113.5 72.5t-73 112.5t-25.5 142.5q0 80 25 147.5t72 114.5t112.5 72.5t143.5 25.5t144 -25.5t113.5 -72.5t73 -112.5t25.5 -142.5q0 -80 -25 -147.5t-72 -114.5t-112.5 -72.5t-143.5 -25.5
zM466 -3q73 0 135 24t106 68.5t68 108t24 139.5q0 73 -24 135t-69 106t-107.5 68t-135.5 24t-135 -24t-106 -68.5t-68 -108t-24 -139.5q0 -73 24 -135t69 -106t107.5 -68t135.5 -24z" />
    <glyph glyph-name="ohungarumlaut" unicode="&#x151;" horiz-adv-x="716" 
d="M334 750h41l-66 -168h-15zM462 750h41l-66 -168h-15zM359 -21q-120 0 -194 73.5t-74 192.5q0 61 19 111.5t54 86t84 54.5t108 19q120 0 194.5 -73.5t74.5 -192.5q0 -123 -73 -197t-193 -74zM359 -1q54 0 100 17.5t78.5 50.5t50 80t17.5 103q0 110 -69 178t-180 68
q-54 0 -99.5 -17.5t-78 -50.5t-50 -80t-17.5 -103q0 -54 17.5 -100t50.5 -78.5t79.5 -50t100.5 -17.5z" />
    <glyph glyph-name="OE" unicode="&#x152;" horiz-adv-x="1385" 
d="M466 -23q-78 0 -144 25.5t-113.5 72.5t-73 112.5t-25.5 142.5q0 80 25 147.5t72 114.5t112.5 72.5t143.5 25.5q77 0 144 -25h705v-20h-662q77 -42 121 -119t47 -176h418v-20h-417q-1 -39 -9 -82.5t-27.5 -85t-52.5 -79t-81 -63.5h684l-2 -20h-727q-64 -23 -138 -23z
M466 -3q73 0 135 24t106 68.5t68 108t24 139.5q0 73 -24 135t-69 106t-107.5 68t-135.5 24t-135 -24t-106 -68.5t-68 -108t-24 -139.5q0 -73 24 -135t69 -106t107.5 -68t135.5 -24z" />
    <glyph glyph-name="oe" unicode="&#x153;" horiz-adv-x="1222" 
d="M872 516q56 0 104 -17t83.5 -49t56 -77t24.5 -99l-8 -42l-505 4q3 -107 71 -172t177 -65q77 0 134.5 34t86.5 96l18 -10q-30 -66 -93.5 -103t-145.5 -37q-99 0 -167.5 50t-91.5 136q-17 -65 -56 -106t-89 -60.5t-110 -19.5q-120 0 -194 73.5t-74 192.5q0 61 19 111.5
t54 86t84 54.5t108 19q98 0 167 -50t92 -136q17 65 56 106t89 60.5t110 19.5zM607 245v12q-1 25 -7.5 56.5t-23 62.5t-41 54.5t-56 39t-64 21t-57.5 5.5q-54 0 -99.5 -17.5t-78 -50.5t-50 -80t-17.5 -103q0 -54 17.5 -100t50.5 -78.5t79.5 -50t100.5 -17.5q53 0 98.5 17
t78 49.5t50.5 78.5t19 101zM627 256l489 -4l4 23q-4 99 -73 160t-175 61q-67 0 -119.5 -26t-81 -69t-36 -81t-8.5 -64z" />
    <glyph glyph-name="Racute" unicode="&#x154;" horiz-adv-x="932" 
d="M510 899h41l-66 -168h-15zM585 269l37 -133q18 -64 48.5 -99t85.5 -35q37 0 86 16v-21q-46 -15 -86 -15q-57 0 -93.5 33.5t-59.5 115.5l-39 138h-379v-269h-20v665h400q271 0 271 -190q0 -35 -16 -72t-46.5 -67t-74.5 -48.5t-97 -18.5h-17zM185 645v-356h417
q48 0 88.5 16.5t68.5 44t42.5 60.5t14.5 65q0 170 -251 170h-380z" />
    <glyph glyph-name="racute" unicode="&#x155;" horiz-adv-x="479" 
d="M321 747h41l-66 -168h-15zM158 347q21 33 53 64.5t76.5 55.5t94 34t86.5 10v-20q-50 0 -109 -17.5t-112.5 -58.5t-88.5 -97v-318h-20v500h20v-153z" />
    <glyph glyph-name="Rcommaaccent" unicode="&#x156;" horiz-adv-x="937" 
d="M586 269l37 -133q18 -64 48.5 -99t85.5 -35q37 0 86 16v-21q-46 -15 -86 -15q-57 0 -93.5 33.5t-59.5 115.5l-39 138h-379v-269h-20v665h400q271 0 271 -190q0 -35 -16 -72t-46.5 -67t-74.5 -48.5t-97 -18.5h-17zM186 645v-356h417q48 0 88.5 16.5t68.5 44t42.5 60.5
t14.5 65q0 170 -251 170h-380zM466 -175l14 2q-12 -29 -61 -98l16 -12q51 70 62.5 99t11.5 53q0 19 -12 31t-32 12q-43 0 -43 -44q0 -20 11.5 -31.5t32.5 -11.5z" />
    <glyph glyph-name="rcommaaccent" unicode="&#x157;" horiz-adv-x="479" 
d="M159 347q21 33 53 64.5t76.5 55.5t94 34t86.5 10v-20q-50 0 -109 -17.5t-112.5 -58.5t-88.5 -97v-318h-20v500h20v-153zM150 -175l14 2q-12 -29 -61 -98l16 -12q51 70 62.5 99t11.5 53q0 19 -12 31t-32 12q-43 0 -43 -44q0 -20 11.5 -31.5t32.5 -11.5z" />
    <glyph glyph-name="Rcaron" unicode="&#x158;" horiz-adv-x="932" 
d="M328 890l170 -137l169 137h26l-175 -159h-40l-176 159h26zM585 269l37 -133q18 -64 48.5 -99t85.5 -35q37 0 86 16v-21q-46 -15 -86 -15q-57 0 -93.5 33.5t-59.5 115.5l-39 138h-379v-269h-20v665h400q271 0 271 -190q0 -35 -16 -72t-46.5 -67t-74.5 -48.5t-97 -18.5h-17
zM185 645v-356h417q48 0 88.5 16.5t68.5 44t42.5 60.5t14.5 65q0 170 -251 170h-380z" />
    <glyph glyph-name="rcaron" unicode="&#x159;" horiz-adv-x="487" 
d="M140 744l170 -137l169 137h26l-175 -159h-40l-176 159h26zM162 347q21 33 53 64.5t76.5 55.5t94 34t86.5 10v-20q-50 0 -109 -17.5t-112.5 -58.5t-88.5 -97v-318h-20v500h20v-153z" />
    <glyph glyph-name="Sacute" unicode="&#x15a;" horiz-adv-x="885" 
d="M484 899h41l-66 -168h-15zM439 669q132 0 212.5 -46t107.5 -129l18 8q-18 61 -62.5 101.5t-113.5 63t-162 22.5q-52 0 -117 -13t-116 -45t-72 -72t-21 -83q0 -32 15 -55t42 -37t74 -24.5t188 -16.5q143 -6 193 -17t78.5 -26t45 -39t16.5 -57q0 -41 -19 -80.5t-66.5 -71
t-110.5 -44.5t-117 -13q-75 0 -135.5 14t-103 39t-67.5 59t-32 73l-20 -7q19 -96 113.5 -147t244.5 -51q74 0 137.5 17.5t109 48.5t66 74t20.5 89q0 49 -33 84t-103.5 52t-216.5 23q-128 6 -186 18t-85.5 36.5t-27.5 58.5q0 39 20 75.5t63 62.5t101 40.5t122 14.5z" />
    <glyph glyph-name="sacute" unicode="&#x15b;" horiz-adv-x="670" 
d="M358 748h41l-66 -168h-15zM573 397q-8 15 -32 38.5t-73.5 42t-116.5 18.5q-36 0 -77.5 -6t-76.5 -20t-57 -38t-22 -58q0 -12 6.5 -26.5t24 -26t49.5 -23t144 -30.5t154 -34.5t62 -33.5t26.5 -36t6.5 -34q0 -72 -65.5 -110.5t-179.5 -38.5q-72 0 -126.5 17t-92 49.5
t-54.5 80.5l20 9q12 -43 50 -73.5t92.5 -46.5t110.5 -16q105 0 165 33t60 96q0 21 -13 40t-49.5 35.5t-137.5 34.5t-135.5 25.5t-62 19t-45 26.5t-24 31.5t-6.5 31.5q0 31 14 55t42.5 43t80.5 31.5t116 12.5q62 0 113.5 -17t80 -42t42.5 -46z" />
    <glyph glyph-name="Scircumflex" unicode="&#x15c;" horiz-adv-x="885" 
d="M610 724l-170 137l-169 -137h-26l175 159h40l176 -159h-26zM439 669q132 0 212.5 -46t107.5 -129l18 8q-18 61 -62.5 101.5t-113.5 63t-162 22.5q-52 0 -117 -13t-116 -45t-72 -72t-21 -83q0 -32 15 -55t42 -37t74 -24.5t188 -16.5q143 -6 193 -17t78.5 -26t45 -39
t16.5 -57q0 -41 -19 -80.5t-66.5 -71t-110.5 -44.5t-117 -13q-75 0 -135.5 14t-103 39t-67.5 59t-32 73l-20 -7q19 -96 113.5 -147t244.5 -51q74 0 137.5 17.5t109 48.5t66 74t20.5 89q0 49 -33 84t-103.5 52t-216.5 23q-128 6 -186 18t-85.5 36.5t-27.5 58.5q0 39 20 75.5
t63 62.5t101 40.5t122 14.5z" />
    <glyph glyph-name="Scedilla" unicode="&#x15e;" horiz-adv-x="888" 
d="M440 669q-64 0 -122 -14.5t-101 -40.5t-63 -62.5t-20 -75.5q0 -34 27.5 -58.5t85.5 -36.5t186 -18q146 -6 216.5 -23t103.5 -52t33 -84q0 -46 -20.5 -89t-66 -74t-109 -48.5t-137.5 -17.5l-35 1l-9 -37l24 2q21 0 47.5 -8.5t45.5 -31.5t19 -53q0 -48 -40 -80t-97 -32
q-36 0 -71 14l3 20q32 -14 68 -14q23 0 50.5 9t47 32t19.5 51q0 15 -9.5 32.5t-32.5 29t-50 11.5t-51 -10l16 66q-128 9 -207 59t-96 137l20 7q7 -39 32 -73t67.5 -59t103 -39t135.5 -14q54 0 117 13t110.5 44.5t66.5 71t19 80.5q0 33 -16.5 57t-45 39t-78.5 26t-193 17
q-121 5 -174 14t-84 25t-46 39t-15 55q0 43 21 83t67 69t108 45t130 16q93 0 162 -22.5t113.5 -63t62.5 -101.5l-18 -8q-27 83 -107.5 129t-212.5 46z" />
    <glyph glyph-name="scedilla" unicode="&#x15f;" horiz-adv-x="670" 
d="M573 397q-8 15 -32 38.5t-73.5 42t-116.5 18.5q-36 0 -77.5 -6t-76.5 -20t-57 -38t-22 -58q0 -12 6.5 -26.5t24 -26t49.5 -23t144 -30.5t154 -34.5t62 -33.5t26.5 -36t6.5 -34q0 -72 -65.5 -110.5t-179.5 -38.5l-33 1l-10 -38l24 2q21 0 47.5 -8.5t45.5 -31.5t19 -53
q0 -48 -40 -80t-97 -32q-36 0 -71 14l3 20q32 -14 68 -14q23 0 50.5 9t47 32t19.5 51q0 15 -9.5 32.5t-32.5 29t-50 11.5t-51 -10l17 68q-90 9 -145 48t-75 96l20 9q12 -43 50 -73.5t92.5 -46.5t110.5 -16q105 0 165 33t60 96q0 21 -13 40t-49.5 35.5t-137.5 34.5
t-135.5 25.5t-62 19t-45 26.5t-24 31.5t-6.5 31.5q0 31 14 55t42.5 43t80.5 31.5t116 12.5q62 0 113.5 -17t80 -42t42.5 -46z" />
    <glyph glyph-name="Scaron" unicode="&#x160;" horiz-adv-x="885" 
d="M269 889l170 -137l169 137h26l-175 -159h-40l-176 159h26zM439 669q132 0 212.5 -46t107.5 -129l18 8q-18 61 -62.5 101.5t-113.5 63t-162 22.5q-52 0 -117 -13t-116 -45t-72 -72t-21 -83q0 -32 15 -55t42 -37t74 -24.5t188 -16.5q143 -6 193 -17t78.5 -26t45 -39
t16.5 -57q0 -41 -19 -80.5t-66.5 -71t-110.5 -44.5t-117 -13q-75 0 -135.5 14t-103 39t-67.5 59t-32 73l-20 -7q19 -96 113.5 -147t244.5 -51q74 0 137.5 17.5t109 48.5t66 74t20.5 89q0 49 -33 84t-103.5 52t-216.5 23q-128 6 -186 18t-85.5 36.5t-27.5 58.5q0 39 20 75.5
t63 62.5t101 40.5t122 14.5z" />
    <glyph glyph-name="scaron" unicode="&#x161;" horiz-adv-x="670" 
d="M167 742l170 -137l169 137h26l-175 -159h-40l-176 159h26zM573 397q-8 15 -32 38.5t-73.5 42t-116.5 18.5q-36 0 -77.5 -6t-76.5 -20t-57 -38t-22 -58q0 -12 6.5 -26.5t24 -26t49.5 -23t144 -30.5t154 -34.5t62 -33.5t26.5 -36t6.5 -34q0 -72 -65.5 -110.5t-179.5 -38.5
q-72 0 -126.5 17t-92 49.5t-54.5 80.5l20 9q12 -43 50 -73.5t92.5 -46.5t110.5 -16q105 0 165 33t60 96q0 21 -13 40t-49.5 35.5t-137.5 34.5t-135.5 25.5t-62 19t-45 26.5t-24 31.5t-6.5 31.5q0 31 14 55t42.5 43t80.5 31.5t116 12.5q62 0 113.5 -17t80 -42t42.5 -46z" />
    <glyph glyph-name="Tcommaaccent" unicode="&#x162;" horiz-adv-x="775" 
d="M398 0h-20v645h-342v20h704l-2 -20h-340v-645zM386 -175l14 2q-12 -29 -61 -98l16 -12q51 70 62.5 99t11.5 53q0 19 -12 31t-32 12q-43 0 -43 -44q0 -20 11.5 -31.5t32.5 -11.5z" />
    <glyph glyph-name="tcommaaccent" unicode="&#x163;" horiz-adv-x="352" 
d="M308 -6q-84 0 -127.5 50.5t-43.5 163.5v272h-70v20h70v165h20v-165h125v-20h-125v-272q0 -103 38 -148.5t113 -45.5v-20zM173 -175l14 2q-12 -29 -61 -98l16 -12q51 70 62.5 99t11.5 53q0 19 -12 31t-32 12q-43 0 -43 -44q0 -20 11.5 -31.5t32.5 -11.5z" />
    <glyph glyph-name="Tcaron" unicode="&#x164;" horiz-adv-x="776" 
d="M220 881l170 -137l169 137h26l-175 -159h-40l-176 159h26zM398 0h-20v645h-342v20h704l-2 -20h-340v-645z" />
    <glyph glyph-name="tcaron" unicode="&#x165;" horiz-adv-x="355" 
d="M391 661q-20 0 -31.5 12.5t-11.5 30.5t11 31t31 13t32 -12.5t12 -35.5q0 -22 -14 -57.5t-44 -67.5l-16 12q12 14 24 31t21 45zM309 -6q-84 0 -127.5 50.5t-43.5 163.5v272h-70v20h70v165h20v-165h125v-20h-125v-272q0 -103 38 -148.5t113 -45.5v-20z" />
    <glyph glyph-name="Tbar" unicode="&#x166;" horiz-adv-x="776" 
d="M398 307h180v-20h-180v-287h-20v287h-180v20h180v338h-342v20h704v-20h-342v-338z" />
    <glyph glyph-name="tbar" unicode="&#x167;" horiz-adv-x="375" 
d="M316 -6q-84 0 -127.5 50.5t-43.5 163.5v89h-69v20h69v163h-70v20h70v165h20v-165h125v-20h-125v-163h124v-20h-124v-89q0 -103 38 -148.5t113 -45.5v-20z" />
    <glyph glyph-name="Utilde" unicode="&#x168;" horiz-adv-x="938" 
d="M656 815q-23 -82 -87 -82q-42 0 -106 35t-81.5 39.5t-27.5 4.5q-35 0 -49 -61l-20 4q19 78 70 78q11 0 30.5 -5t71.5 -33t74 -35.5t38 -7.5q48 0 67 67zM146 246q0 -59 22 -109t64 -86t102.5 -55.5t134.5 -19.5t134.5 19.5t102.5 55.5t64 86t22 109v419h-20v-419
q0 -55 -21 -101.5t-60.5 -79.5t-96 -51t-125.5 -18t-125.5 18t-96 51t-60.5 79.5t-21 101.5v419h-20v-419z" />
    <glyph glyph-name="utilde" unicode="&#x169;" 
d="M583 685q-23 -82 -87 -82q-42 0 -106 35t-81.5 39.5t-27.5 4.5q-35 0 -49 -61l-20 4q19 78 70 78q11 0 30.5 -5t71.5 -33t74 -35.5t38 -7.5q48 0 67 67zM612 142q-48 -76 -116 -114.5t-164 -38.5q-40 0 -78.5 14t-68 39.5t-46.5 61.5t-17 78v318h20v-318q0 -28 10.5 -58
t35 -55.5t62 -42.5t82.5 -17q37 0 86.5 11t101 48t92.5 104v328h20v-500h-20v142z" />
    <glyph glyph-name="Umacron" unicode="&#x16a;" horiz-adv-x="938" 
d="M667 783v-20h-380v20h380zM146 246q0 -59 22 -109t64 -86t102.5 -55.5t134.5 -19.5t134.5 19.5t102.5 55.5t64 86t22 109v419h-20v-419q0 -55 -21 -101.5t-60.5 -79.5t-96 -51t-125.5 -18t-125.5 18t-96 51t-60.5 79.5t-21 101.5v419h-20v-419z" />
    <glyph glyph-name="umacron" unicode="&#x16b;" 
d="M578 676v-20h-380v20h380zM612 142q-48 -76 -116 -114.5t-164 -38.5q-40 0 -78.5 14t-68 39.5t-46.5 61.5t-17 78v318h20v-318q0 -28 10.5 -58t35 -55.5t62 -42.5t82.5 -17q37 0 86.5 11t101 48t92.5 104v328h20v-500h-20v142z" />
    <glyph glyph-name="Ubreve" unicode="&#x16c;" horiz-adv-x="938" 
d="M588 868q0 -40 -20.5 -78t-49 -53.5t-55.5 -15.5t-55.5 15.5t-49 53.5t-20.5 78h20q0 -48 30 -87.5t75 -39.5t75 39.5t30 87.5h20zM146 246q0 -59 22 -109t64 -86t102.5 -55.5t134.5 -19.5t134.5 19.5t102.5 55.5t64 86t22 109v419h-20v-419q0 -55 -21 -101.5
t-60.5 -79.5t-96 -51t-125.5 -18t-125.5 18t-96 51t-60.5 79.5t-21 101.5v419h-20v-419z" />
    <glyph glyph-name="ubreve" unicode="&#x16d;" 
d="M501 735q0 -40 -20.5 -78t-49 -53.5t-55.5 -15.5t-55.5 15.5t-49 53.5t-20.5 78h20q0 -48 30 -87.5t75 -39.5t75 39.5t30 87.5h20zM612 142q-48 -76 -116 -114.5t-164 -38.5q-40 0 -78.5 14t-68 39.5t-46.5 61.5t-17 78v318h20v-318q0 -28 10.5 -58t35 -55.5t62 -42.5
t82.5 -17q37 0 86.5 11t101 48t92.5 104v328h20v-500h-20v142z" />
    <glyph glyph-name="Uring" unicode="&#x16e;" horiz-adv-x="938" 
d="M471 721q-37 0 -65 17.5t-38.5 44t-10.5 49.5q0 52 31 84t81 32t81.5 -31t31.5 -80q0 -38 -17.5 -66.5t-44 -39t-49.5 -10.5zM471 741q41 0 66 26.5t25 69.5q0 41 -26 66t-67 25t-66.5 -26.5t-25.5 -69.5q0 -40 26.5 -65.5t67.5 -25.5zM146 665h20v-419q0 -55 21 -101.5
t60.5 -79.5t96 -51t125.5 -18t125.5 18t96 51t60.5 79.5t21 101.5v419h20v-419q0 -59 -22 -109t-64 -86t-102.5 -55.5t-134.5 -19.5t-134.5 19.5t-102.5 55.5t-64 86t-22 109v419z" />
    <glyph glyph-name="uring" unicode="&#x16f;" 
d="M397 567q-37 0 -65 17.5t-38.5 44t-10.5 49.5q0 52 31 84t81 32t81.5 -31t31.5 -80q0 -38 -17.5 -66.5t-44 -39t-49.5 -10.5zM397 587q41 0 66 26.5t25 69.5q0 41 -26 66t-67 25t-66.5 -26.5t-25.5 -69.5q0 -40 26.5 -65.5t67.5 -25.5zM612 142q-48 -76 -116 -114.5
t-164 -38.5q-40 0 -78.5 14t-68 39.5t-46.5 61.5t-17 78v318h20v-318q0 -28 10.5 -58t35 -55.5t62 -42.5t82.5 -17q37 0 86.5 11t101 48t92.5 104v328h20v-500h-20v142z" />
    <glyph glyph-name="Uhungarumlaut" unicode="&#x170;" horiz-adv-x="938" 
d="M453 891h41l-66 -168h-15zM581 891h41l-66 -168h-15zM146 246q0 -59 22 -109t64 -86t102.5 -55.5t134.5 -19.5t134.5 19.5t102.5 55.5t64 86t22 109v419h-20v-419q0 -55 -21 -101.5t-60.5 -79.5t-96 -51t-125.5 -18t-125.5 18t-96 51t-60.5 79.5t-21 101.5v419h-20v-419z
" />
    <glyph glyph-name="uhungarumlaut" unicode="&#x171;" 
d="M339 743h41l-66 -168h-15zM467 743h41l-66 -168h-15zM612 142q-48 -76 -116 -114.5t-164 -38.5q-40 0 -78.5 14t-68 39.5t-46.5 61.5t-17 78v318h20v-318q0 -28 10.5 -58t35 -55.5t62 -42.5t82.5 -17q37 0 86.5 11t101 48t92.5 104v328h20v-500h-20v142z" />
    <glyph glyph-name="Uogonek" unicode="&#x172;" horiz-adv-x="939" 
d="M146 665h20v-419q0 -55 21 -101.5t60.5 -79.5t96 -51t125.5 -18t125.5 18t96 51t60.5 79.5t21 101.5v419h20v-419q0 -110 -71.5 -182.5t-195.5 -84.5q-57 -6 -85 -29t-28 -53q0 -15 9.5 -34.5t34.5 -35t57 -15.5q34 0 65 15l8 -18q-37 -17 -73 -17q-38 0 -68 19
t-41.5 43.5t-11.5 42.5q0 24 14 45t42 35q-69 3 -125.5 23t-96 55.5t-60 84.5t-20.5 106v419z" />
    <glyph glyph-name="uogonek" unicode="&#x173;" horiz-adv-x="770" 
d="M474 -83q0 38 35 65.5t102 30.5v129q-48 -76 -116 -114.5t-164 -38.5q-40 0 -78.5 14t-68 39.5t-46.5 61.5t-17 78v318h20v-318q0 -28 10.5 -58t35 -55.5t62 -42.5t82.5 -17q37 0 86.5 11t101 48t92.5 104v328h20v-500q-36 -1 -68.5 -10t-50.5 -29.5t-18 -43.5
q0 -15 9.5 -34.5t34.5 -35t57 -15.5q34 0 65 15l8 -18q-37 -17 -73 -17q-38 0 -68 19t-41.5 43.5t-11.5 42.5z" />
    <glyph glyph-name="Wcircumflex" unicode="&#x174;" horiz-adv-x="1045" 
d="M694 725l-170 137l-169 -137h-26l175 159h40l176 -159h-26zM518 665l-205 -624l-225 624h-21l239 -665h15l201 614l202 -614h15l239 665h-21l-225 -624l-206 624h-8z" />
    <glyph glyph-name="wcircumflex" unicode="&#x175;" horiz-adv-x="946" 
d="M640 577l-170 137l-169 -137h-26l175 159h40l176 -159h-26zM46 500l209 -500h36l182 460l182 -460h36l209 500h-23l-198 -480h-12l-189 480h-10l-189 -480h-12l-198 480h-23z" />
    <glyph glyph-name="Ycircumflex" unicode="&#x176;" horiz-adv-x="746" 
d="M543 722l-170 137l-169 -137h-26l175 159h40l176 -159h-26zM383 0h-20v213l-317 452h26l301 -432l301 432h26l-317 -452v-213z" />
    <glyph glyph-name="ycircumflex" unicode="&#x177;" horiz-adv-x="588" 
d="M481 580l-170 137l-169 -137h-26l175 159h40l176 -159h-26zM552 500l-349 -710h-21l104 212l-251 498h23l238 -476h1l232 476h23z" />
    <glyph glyph-name="Ydieresis" unicode="&#x178;" horiz-adv-x="746" 
d="M274 783q-13 0 -22 8.5t-9 21.5q0 16 9 23.5t21 7.5q13 0 22 -8.5t9 -21.5q0 -16 -9 -23.5t-21 -7.5zM474 783q-13 0 -22 8.5t-9 21.5q0 16 9 23.5t21 7.5q13 0 22 -8.5t9 -21.5q0 -16 -9 -23.5t-21 -7.5zM383 0h-20v213l-317 452h26l301 -432l301 432h26l-317 -452v-213
z" />
    <glyph glyph-name="Zacute" unicode="&#x179;" horiz-adv-x="758" 
d="M404 894h41l-66 -168h-15zM85 20l582 626l-10 19h-586v-19h567l-581 -626v-20h652v20h-624z" />
    <glyph glyph-name="zacute" unicode="&#x17a;" horiz-adv-x="582" 
d="M335 747h41l-66 -168h-15zM70 20h469v-20h-497v20l466 460h-456v20h477v-27z" />
    <glyph glyph-name="Zdotaccent" unicode="&#x17b;" horiz-adv-x="758" 
d="M390 725q-13 0 -22 8.5t-9 21.5q0 16 9 23.5t21 7.5q13 0 22 -8.5t9 -21.5q0 -16 -9 -23.5t-21 -7.5zM709 20v-20h-652v20l581 626h-567v19h586l10 -19l-582 -626h624z" />
    <glyph glyph-name="zdotaccent" unicode="&#x17c;" horiz-adv-x="582" 
d="M305 588q-13 0 -22 8.5t-9 21.5q0 16 9 23.5t21 7.5q13 0 22 -8.5t9 -21.5q0 -16 -9 -23.5t-21 -7.5zM70 20h469v-20h-497v20l466 460h-456v20h477v-27z" />
    <glyph glyph-name="Zcaron" unicode="&#x17d;" horiz-adv-x="758" 
d="M233 889l170 -137l169 137h26l-175 -159h-40l-176 159h26zM85 20l582 626l-10 19h-586v-19h567l-581 -626v-20h652v20h-624z" />
    <glyph glyph-name="zcaron" unicode="&#x17e;" horiz-adv-x="582" 
d="M129 741l170 -137l169 137h26l-175 -159h-40l-176 159h26zM70 20h469v-20h-497v20l466 460h-456v20h477v-27z" />
    <glyph glyph-name="AEacute" unicode="&#x1fc;" horiz-adv-x="1243" 
d="M725 888h41l-66 -168h-15zM65 0l214 274h298v-274h613v20h-594v310h488v20h-488v295h575v20h-612l-518 -665h24zM577 294h-282l274 351h8v-351z" />
    <glyph glyph-name="aeacute" unicode="&#x1fd;" horiz-adv-x="1210" 
d="M673 749l-66 -168h-15l40 168h41zM861 516q56 0 104 -17t83.5 -49t56 -77t24.5 -99l-8 -42l-505 4q3 -107 71 -172t177 -65q77 0 134.5 34t86.5 96l18 -10q-30 -66 -93.5 -103t-145.5 -37q-90 0 -155.5 41.5t-93.5 115.5v-136h-21v109q-32 -61 -93.5 -95.5t-141.5 -34.5
q-120 0 -194 73.5t-74 192.5q0 61 19 111.5t54 86t84 54.5t108 19q38 0 84.5 -11.5t88 -43.5t65.5 -77v116h21v-143q28 75 92.5 117t153.5 42zM594 167v163q-22 77 -85.5 121.5t-152.5 44.5q-54 0 -99.5 -17.5t-78 -50.5t-50 -80t-17.5 -103q0 -54 17.5 -100t50.5 -78.5
t79.5 -50t100.5 -17.5q89 0 150.5 44.5t84.5 123.5zM616 256l489 -4l4 23q-4 99 -73 160t-175 61q-67 0 -119.5 -26t-81 -69t-36 -81t-8.5 -64z" />
    <glyph glyph-name="Oslashacute" unicode="&#x1fe;" horiz-adv-x="932" 
d="M502 901h41l-66 -168h-15zM219 1l29 41q-65 47 -100.5 121t-35.5 167q0 80 25 147.5t72 114.5t112.5 72.5t143.5 25.5q112 0 196 -50l23 33l16 -12l-22 -32q67 -46 105 -122t38 -170q0 -80 -25 -147.5t-72 -114.5t-112.5 -72.5t-143.5 -25.5q-115 0 -204 54l-29 -42z
M132 330q0 -41 11 -92t41.5 -99t74.5 -80l390 564q-80 47 -184 47q-73 0 -135 -24t-106 -68.5t-68 -108t-24 -139.5zM468 -3q73 0 135 24t106 68.5t68 108t24 139.5q0 88 -36 160t-99 115l-390 -564q80 -51 192 -51z" />
    <glyph glyph-name="oslashacute" unicode="&#x1ff;" horiz-adv-x="723" 
d="M399 746h41l-66 -168h-15zM147 -48l51 74q-49 34 -76.5 91t-27.5 128q0 61 19 111.5t54 86t84 54.5t108 19q86 0 151 -40l51 73l16 -12l-50 -72q48 -35 74.5 -90t26.5 -125q0 -123 -73 -197t-193 -74q-43 0 -81 10t-66 26l-52 -75zM114 245q0 -65 25.5 -118t70.5 -84
l289 417q-28 16 -65.5 26t-74.5 10q-54 0 -99.5 -17.5t-78 -50.5t-50 -80t-17.5 -103zM362 -1q54 0 100 17.5t78.5 50.5t50 80t17.5 103q0 30 -8 67t-30.5 72t-54.5 59l-288 -416q26 -15 62.5 -24t72.5 -9z" />
    <glyph glyph-name="circumflex" unicode="&#x2c6;" horiz-adv-x="523" 
d="M431 730l-170 137l-169 -137h-26l175 159h40l176 -159h-26z" />
    <glyph glyph-name="caron" unicode="&#x2c7;" horiz-adv-x="529" 
d="M95 889l170 -137l169 137h26l-175 -159h-40l-176 159h26z" />
    <glyph glyph-name="breve" unicode="&#x2d8;" horiz-adv-x="476" 
d="M363 868q0 -40 -20.5 -78t-49 -53.5t-55.5 -15.5t-55.5 15.5t-49 53.5t-20.5 78h20q0 -48 30 -87.5t75 -39.5t75 39.5t30 87.5h20z" />
    <glyph glyph-name="dotaccent" unicode="&#x2d9;" horiz-adv-x="323" 
d="M162 736q-13 0 -22 8.5t-9 21.5q0 16 9 23.5t21 7.5q13 0 22 -8.5t9 -21.5q0 -16 -9 -23.5t-21 -7.5z" />
    <glyph glyph-name="ring" unicode="&#x2da;" horiz-adv-x="459" 
d="M231 709q-37 0 -65 17.5t-38.5 44t-10.5 49.5q0 52 31 84t81 32t81.5 -31t31.5 -80q0 -38 -17.5 -66.5t-44 -39t-49.5 -10.5zM231 729q41 0 66 26.5t25 69.5q0 41 -26 66t-67 25t-66.5 -26.5t-25.5 -69.5q0 -40 26.5 -65.5t67.5 -25.5z" />
    <glyph glyph-name="ogonek" unicode="&#x2db;" horiz-adv-x="385" 
d="M267 0q-44 0 -73 -10.5t-46 -30t-17 -42.5q0 -15 9.5 -34.5t34.5 -35t57 -15.5q34 0 65 15l8 -18q-37 -17 -73 -17q-38 0 -68 19t-41.5 43.5t-11.5 42.5t10.5 38.5t33.5 34t51 19t56 5.5h5v-14z" />
    <glyph glyph-name="tilde" unicode="&#x2dc;" horiz-adv-x="609" 
d="M491 841q-23 -82 -87 -82q-42 0 -106 35t-81.5 39.5t-27.5 4.5q-35 0 -49 -61l-20 4q19 78 70 78q11 0 30.5 -5t71.5 -33t74 -35.5t38 -7.5q48 0 67 67z" />
    <glyph glyph-name="hungarumlaut" unicode="&#x2dd;" horiz-adv-x="441" 
d="M161 898h41l-66 -168h-15zM289 898h41l-66 -168h-15z" />
    <glyph glyph-name="Wgrave" unicode="&#x1e80;" horiz-adv-x="1045" 
d="M542 728h-15l-66 168h41zM518 665l-205 -624l-225 624h-21l239 -665h15l201 614l202 -614h15l239 665h-21l-225 -624l-206 624h-8z" />
    <glyph glyph-name="wgrave" unicode="&#x1e81;" horiz-adv-x="946" 
d="M499 581h-15l-66 168h41zM46 500l209 -500h36l182 460l182 -460h36l209 500h-23l-198 -480h-12l-189 480h-10l-189 -480h-12l-198 480h-23z" />
    <glyph glyph-name="Wacute" unicode="&#x1e82;" horiz-adv-x="1045" 
d="M545 893h41l-66 -168h-15zM518 665l-205 -624l-225 624h-21l239 -665h15l201 614l202 -614h15l239 665h-21l-225 -624l-206 624h-8z" />
    <glyph glyph-name="wacute" unicode="&#x1e83;" horiz-adv-x="946" 
d="M493 748h41l-66 -168h-15zM46 500l209 -500h36l182 460l182 -460h36l209 500h-23l-198 -480h-12l-189 480h-10l-189 -480h-12l-198 480h-23z" />
    <glyph glyph-name="Wdieresis" unicode="&#x1e84;" horiz-adv-x="1045" 
d="M423 773q-13 0 -22 8.5t-9 21.5q0 16 9 23.5t21 7.5q13 0 22 -8.5t9 -21.5q0 -16 -9 -23.5t-21 -7.5zM623 773q-13 0 -22 8.5t-9 21.5q0 16 9 23.5t21 7.5q13 0 22 -8.5t9 -21.5q0 -16 -9 -23.5t-21 -7.5zM526 665l206 -624l225 624h21l-239 -665h-15l-202 614l-201 -614
h-15l-239 665h21l225 -624l205 624h8z" />
    <glyph glyph-name="wdieresis" unicode="&#x1e85;" horiz-adv-x="946" 
d="M378 637q-13 0 -22 8.5t-9 21.5q0 16 9 23.5t21 7.5q13 0 22 -8.5t9 -21.5q0 -16 -9 -23.5t-21 -7.5zM578 637q-13 0 -22 8.5t-9 21.5q0 16 9 23.5t21 7.5q13 0 22 -8.5t9 -21.5q0 -16 -9 -23.5t-21 -7.5zM69 500l198 -480h12l189 480h10l189 -480h12l198 480h23
l-209 -500h-36l-182 460l-182 -460h-36l-209 500h23z" />
    <glyph glyph-name="Ygrave" unicode="&#x1ef2;" horiz-adv-x="746" 
d="M420 730h-15l-66 168h41zM383 0h-20v213l-317 452h26l301 -432l301 432h26l-317 -452v-213z" />
    <glyph glyph-name="ygrave" unicode="&#x1ef3;" horiz-adv-x="588" 
d="M349 575h-15l-66 168h41zM552 500l-349 -710h-21l104 212l-251 498h23l238 -476h1l232 476h23z" />
    <glyph glyph-name="endash" unicode="&#x2013;" horiz-adv-x="763" 
d="M138 323h487v-20h-487v20z" />
    <glyph glyph-name="emdash" unicode="&#x2014;" horiz-adv-x="1171" 
d="M138 323h895v-20h-895v20z" />
    <glyph glyph-name="quoteleft" unicode="&#x2018;" horiz-adv-x="382" 
d="M192 596q20 0 31.5 -12.5t11.5 -30.5t-11 -31t-31 -13t-32 12.5t-12 35.5q0 22 14 57.5t44 67.5l16 -12q-12 -14 -24 -31t-21 -45z" />
    <glyph glyph-name="quoteright" unicode="&#x2019;" horiz-adv-x="382" 
d="M190 595q-20 0 -31.5 12.5t-11.5 30.5t11 31t31 13t32 -12.5t12 -35.5q0 -22 -14 -57.5t-44 -67.5l-16 12q12 14 24 31t21 45z" />
    <glyph glyph-name="quotesinglbase" unicode="&#x201a;" horiz-adv-x="383" 
d="M194 70h1l-13 -1zM238 22q0 23 -11.5 35.5t-31.5 12.5h1q20 0 32 -12t12 -31q0 -31 -16 -64q14 35 14 59zM182 69q-17 -5 -26 -23q6 18 26 23zM153 26q0 -20 11.5 -31.5t31.5 -11.5h-1q-20 0 -31.5 12.5t-11.5 30.5q0 11 4 20q-3 -9 -3 -20zM196 -17l13 2l-12 -2h-1z
M209 -15h2l-7 -14zM172 -82q24 36 32 53q-7 -22 -32 -53zM224 -37q-15 -33 -35 -56q26 39 35 56zM164 -91l8 9l-7 -10zM180 -103l9 10l-23 -32l-16 12l15 21z" />
    <glyph glyph-name="quotedblleft" unicode="&#x201c;" horiz-adv-x="512" 
d="M192 596q20 0 31.5 -12.5t11.5 -30.5t-11 -31t-31 -13t-32 12.5t-12 35.5q0 22 14 57.5t44 67.5l16 -12q-12 -14 -24 -31t-21 -45zM322 596q20 0 31.5 -12.5t11.5 -30.5t-11 -31t-31 -13t-32 12.5t-12 35.5q0 22 14 57.5t44 67.5l16 -12q-12 -14 -24 -31t-21 -45z" />
    <glyph glyph-name="quotedblright" unicode="&#x201d;" horiz-adv-x="512" 
d="M190 595q-20 0 -31.5 12.5t-11.5 30.5t11 31t31 13t32 -12.5t12 -35.5q0 -22 -14 -57.5t-44 -67.5l-16 12q12 14 24 31t21 45zM320 595q-20 0 -31.5 12.5t-11.5 30.5t11 31t31 13t32 -12.5t12 -35.5q0 -22 -14 -57.5t-44 -67.5l-16 12q12 14 24 31t21 45z" />
    <glyph glyph-name="quotedblbase" unicode="&#x201e;" horiz-adv-x="512" 
d="M190 -17q-20 0 -31.5 12.5t-11.5 30.5t11 31t31 13t32 -12.5t12 -35.5q0 -22 -14 -57.5t-44 -67.5l-16 12q12 14 24 31t21 45zM320 -17q-20 0 -31.5 12.5t-11.5 30.5t11 31t31 13t32 -12.5t12 -35.5q0 -22 -14 -57.5t-44 -67.5l-16 12q12 14 24 31t21 45z" />
    <glyph glyph-name="dagger" unicode="&#x2020;" horiz-adv-x="452" 
d="M225 532q-4 0 -12.5 41.5t-8.5 70.5q0 19 7 29.5t15 10.5q9 0 15 -10.5t6 -29.5q0 -29 -8.5 -70.5t-12.5 -41.5h-1zM201 505q0 -4 -41.5 -12.5t-70.5 -8.5q-19 0 -29.5 7t-10.5 15q0 9 10.5 15t29.5 6q29 0 70.5 -8.5t41.5 -12.5v-1zM251 506q0 4 41.5 12.5t70.5 8.5
q19 0 29.5 -6t10.5 -15q0 -8 -10.5 -15t-29.5 -7q-29 0 -70.5 8.5t-41.5 12.5v1zM226 482q3 0 12 -159t9 -193q0 -19 -6 -29.5t-15 -10.5q-8 0 -15 10.5t-7 29.5q0 34 9 193t12 159h1z" />
    <glyph glyph-name="bullet" unicode="&#x2022;" horiz-adv-x="355" 
d="M178 198q-23 0 -36.5 14.5t-13.5 36.5q0 23 13.5 37t35.5 14q23 0 36.5 -14t13.5 -36q0 -23 -13.5 -37.5t-35.5 -14.5z" />
    <glyph glyph-name="ellipsis" unicode="&#x2026;" horiz-adv-x="890" 
d="M175 -17q-21 0 -32.5 11.5t-11.5 31.5q0 44 43 44q20 0 32 -12t12 -31q0 -22 -11.5 -33t-31.5 -11zM445 -17q-21 0 -32.5 11.5t-11.5 31.5q0 44 43 44q20 0 32 -12t12 -31q0 -22 -11.5 -33t-31.5 -11zM717 -17q-21 0 -32.5 11.5t-11.5 31.5q0 44 43 44q20 0 32 -12
t12 -31q0 -22 -11.5 -33t-31.5 -11z" />
    <glyph glyph-name="perthousand" unicode="&#x2030;" horiz-adv-x="1521" 
d="M325 0l385 672l18 -10l-385 -672zM272 231q95 0 153 59t58 157q0 94 -59 152.5t-154 58.5t-153 -59t-58 -157q0 -94 59 -152.5t154 -58.5zM272 251q-87 0 -140 53t-53 138q0 89 52.5 142.5t138.5 53.5q87 0 140 -53t53 -138q0 -89 -52.5 -142.5t-138.5 -53.5zM785 -8
q95 0 153 59t58 157q0 94 -59 152.5t-154 58.5t-153 -59t-58 -157q0 -94 59 -152.5t154 -58.5zM1251 -8q95 0 153 59t58 157q0 94 -59 152.5t-154 58.5t-153 -59t-58 -157q0 -94 59 -152.5t154 -58.5zM785 12q-87 0 -140 53t-53 138q0 89 52.5 142.5t138.5 53.5
q87 0 140 -53t53 -138q0 -89 -52.5 -142.5t-138.5 -53.5zM1251 12q-87 0 -140 53t-53 138q0 89 52.5 142.5t138.5 53.5q87 0 140 -53t53 -138q0 -89 -52.5 -142.5t-138.5 -53.5z" />
    <glyph glyph-name="guilsinglleft" unicode="&#x2039;" horiz-adv-x="390" 
d="M78 268v25l209 178l13 -5l-188 -184l188 -186l-13 -5z" />
    <glyph glyph-name="guilsinglright" unicode="&#x203a;" horiz-adv-x="390" 
d="M103 91l-13 5l188 186l-188 184l13 5l209 -178v-25z" />
    <glyph glyph-name="fraction" unicode="&#x2044;" horiz-adv-x="460" 
d="M431 659l-385 -672l-18 10l385 672z" />
    <glyph glyph-name="Euro" unicode="&#x20ac;" horiz-adv-x="804" 
d="M409 293v-20h-239q7 -56 28 -106.5t55 -89t81.5 -61t105.5 -22.5q43 0 86.5 12.5t80.5 40t61.5 72.5t29.5 106l20 -2q-4 -49 -23 -95.5t-56 -80.5t-88 -53.5t-111 -19.5q-46 0 -94 16t-88.5 53.5t-69.5 95.5t-39 134h-80v20h78l-1 39q0 34 4 62h-81v20h84q10 58 35 108.5
t63 88.5t89.5 59t110.5 21q93 0 155.5 -35t99.5 -108l-13 -14q-37 68 -94.5 102.5t-147.5 34.5q-41 0 -84.5 -13t-82 -44.5t-68.5 -81.5t-43 -118h236v-20h-239q-4 -27 -4 -62l1 -39h242z" />
    <glyph glyph-name="trademark" unicode="&#x2122;" horiz-adv-x="1028" 
d="M405 665v-20h-166v-312h-20v312h-166v20h352zM486 333v332h24l164 -214l164 214h24v-332h-21v302l-157 -204h-20l-157 204v-302h-21z" />
    <glyph glyph-name="minus" unicode="&#x2212;" horiz-adv-x="787" 
d="M138 332h511v-20h-511v20z" />
    <glyph glyph-name="notequal" unicode="&#x2260;" horiz-adv-x="639" 
d="M64 423h312l95 137l16 -12l-87 -125h175v-20h-189l-111 -160h300v-20h-314l-94 -135l-16 12l85 123h-172v20h186l112 160h-298v20z" />
    <glyph glyph-name="uniF8FF" unicode="&#xf8ff;" horiz-adv-x="1208" 
d="M542 540l10 22q1 3 14.5 37.5t27.5 55t35 32.5t52 12q33 0 50.5 -12t17.5 -33q0 -28 -25.5 -60t-58.5 -50t-58 -23q-43 -104 -43 -137q0 -16 10 -16q14 0 32.5 9.5t33.5 21.5q9 26 31.5 61.5t60 65t73.5 29.5q30 0 45.5 -15t15.5 -38q0 -19 -12 -47t-40.5 -51.5
t-58.5 -23.5q-19 0 -39 12l-2 -13q0 -12 7.5 -20.5t24.5 -8.5q24 0 56 15t42 30q-8 -48 -51.5 -79.5t-88.5 -31.5q-23 0 -41 9.5t-25 26t-7 32.5v12q-19 -37 -44.5 -56.5t-49.5 -19.5q-25 0 -42 18.5t-17 48.5q-3 -10 -17 -28.5t-31 -28.5t-30 -10q-17 0 -28 12.5t-16 31.5
q-34 -42 -73 -42q-26 0 -43 21t-17 54q0 29 13 61.5t41 61t67 48.5t77 20q23 0 37 -10t14 -26q0 -17 -16 -37q-13 4 -29 4q-25 0 -52 -14.5t-47.5 -42.5t-20.5 -47q0 -12 10 -12q14 0 35 21t33 43.5t14 35.5l15 2q17 0 29.5 -11.5t12.5 -25.5q0 -1 -14 -31.5t-14 -45.5
q0 -5 6 -5q11 0 24.5 10t23.5 23q6 25 26.5 70t26.5 67q-12 5 -24 12zM628 569q31 17 46 37.5t15 34.5q0 12 -6 12q-19 0 -55 -84zM949 393q-25 0 -41.5 15.5t-16.5 44.5q0 19 9.5 39.5t32 34.5t45.5 14q25 0 41.5 -16t16.5 -45q0 -19 -9.5 -39.5t-32 -34t-45.5 -13.5z
M954 409q26 0 47 18.5t21 47.5q0 24 -14 36.5t-34 12.5q-18 0 -36 -10.5t-25.5 -26t-7.5 -29.5q0 -24 14.5 -36.5t34.5 -12.5zM985 459q0 -15 -14.5 -26.5t-27.5 -11.5q-7 0 -12 5.5t-5 15.5q0 9 6.5 24.5t21.5 30t31 14.5t16 -13q0 -5 -3.5 -12t-7.5 -8q-3 12 -11 12
q-9 0 -19.5 -17t-10.5 -25q0 -2 2.5 -3.5t4.5 -1.5q14 0 29 16zM730 429q5 -2 17 -2q22 0 34.5 13t12.5 27t-12 14q-11 0 -26.5 -16.5t-25.5 -35.5zM1088 406q32 0 49.5 -12t17.5 -33q0 -39 -43 -80t-97 -53q-43 -100 -58 -145t-15 -67q0 -30 22 -30q17 0 47 12
q-5 -34 -30.5 -64.5t-58.5 -30.5q-63 0 -63 76q0 21 7 48q-13 -14 -29 -23t-30 -9q-20 0 -33.5 19t-15.5 46q-14 -23 -34.5 -42t-45.5 -19q-22 0 -37 16.5t-15 37.5q0 29 31 101t36 89.5t5 26.5q23 0 44 -10.5t21 -26.5q0 -17 -28.5 -69.5t-28.5 -65.5q0 -7 5 -10
q29 0 70 54q15 20 37 65.5t25 62.5q17 -1 38.5 -12.5t21.5 -26.5q0 -1 -0.5 -4t-3.5 -11.5t-21 -41t-24 -47t-9.5 -26.5t-3.5 -23q0 -17 12 -17q10 0 26 11q19 60 63 159q-12 4 -25 12l32 4v1l9 21q1 3 15.5 39.5t30 57t36.5 30.5t48 10zM1035 275q30 17 45 38t15 35
q0 12 -5 12q-20 0 -55 -85zM129 -96q-14 0 -31.5 7.5t-25.5 19t-8 21.5q0 14 15 52t52.5 123t47.5 113t12 39q16 -1 31.5 -6.5t22.5 -16t7 -20.5q0 -15 -9 -30l7 5q26 21 43.5 32.5t37.5 11.5q26 0 39 -16t13 -42q0 -45 -30 -97.5t-65 -76t-64 -23.5q-35 0 -35 37q0 14 8 31
t18 30q6 -20 18 -20q9 0 23.5 14.5t28.5 41t14 38.5q0 15 -12 15q-22 0 -52 -35t-61.5 -111.5t-44.5 -136.5zM558 180q17 0 29.5 -11.5t12.5 -25.5q0 -1 -0.5 -3t-14 -30.5t-13.5 -44.5q0 -2 1.5 -3.5t3.5 -1.5q8 0 23.5 10.5t23.5 21.5h1q-2 -25 -15 -50.5t-31 -36.5
t-35 -11q-32 0 -44 44q-36 -42 -73 -42q-26 0 -43 20.5t-17 54.5q0 39 19 75t49 61.5t65 40t65 14.5q22 0 36 -9.5t14 -25.5q0 -19 -15 -37q-20 4 -29 4q-35 0 -65 -23t-42.5 -46.5t-12.5 -34.5q0 -12 10 -12q14 0 35 20.5t33 43t14 35.5q8 3 15 3z" />
    <glyph glyph-name="uniFB01" unicode="&#xfb01;" horiz-adv-x="696" 
d="M548 626q-13 0 -22 8.5t-9 21.5q0 16 9 23.5t21 7.5q13 0 22 -8.5t9 -21.5q0 -16 -9 -23.5t-21 -7.5zM147 500q2 84 37.5 129.5t113.5 55.5v-20q-59 -8 -94 -45.5t-37 -119.5h391v-500h-20v480h-371v-480h-20v480h-70v20h70z" />
    <glyph glyph-name="uniFB02" unicode="&#xfb02;" horiz-adv-x="669" 
d="M485 645h-195q-59 0 -90.5 -31t-33.5 -114h79v-20h-79v-480h-20v480h-70v20h70q2 95 38.5 130t105.5 35h215v-457q0 -103 38 -148.5t113 -45.5v-20q-84 0 -127.5 50.5t-43.5 163.5v437z" />
    <glyph glyph-name="glyph354" horiz-adv-x="0" 
 />
    </font>
</defs>
</svg>
